<svg xmlns="http://www.w3.org/2000/svg" xmlns:xlink="http://www.w3.org/1999/xlink" width="359.552" height="358.514" viewBox="0 0 359.552 358.514"><defs><style>.a,.d{fill:none;}.b{fill:#fbca9e;}.c{fill:#e5b086;}.d{stroke:#c92c28;stroke-miterlimit:10;stroke-width:17.62px;}.e{fill:#0d0e10;}.f{clip-path:url(#a);}.g{fill:#ffb547;}.h{fill:#ffb548;}.i{fill:#ffb649;}.j{fill:#ffb64a;}.k{fill:#ffb74b;}.l{fill:#ffb74c;}.m{fill:#ffb74d;}.n{fill:#ffb84e;}.o{fill:#ffb84f;}.p{fill:#ffb950;}.q{fill:#ffb951;}.r{fill:#ffb952;}.s{fill:#ffba53;}.t{fill:#ffba54;}.u{fill:#fb5;}.v{fill:#ffbb56;}.w{fill:#ffbb57;}.x{fill:#ffbc58;}.y{fill:#ffbc59;}.z{fill:#ffbd5a;}.aa{fill:#ffbd5b;}.ab{fill:#ffbd5c;}.ac{fill:#ffbe5d;}.ad{fill:#ffbe5e;}.ae{fill:#ffbf5f;}.af{fill:#ffbf60;}.ag{fill:#ffc061;}.ah{fill:#ffc062;}.ai{fill:#ffc063;}.aj{fill:#ffc164;}.ak{fill:#ffc165;}.al{fill:#ffc266;}.am{fill:#ffc267;}.an{fill:#ffc268;}.ao{fill:#ffc369;}.ap{fill:#ffc36a;}.aq{fill:#ffc46b;}.ar{fill:#ffc46c;}.as{fill:#ffc46d;}.at{fill:#ffc56e;}.au{fill:#ffc56f;}.av{fill:#ffc670;}.aw{fill:#ffc671;}.ax{fill:#ffc672;}.ay{fill:#ffc773;}.az{fill:#ffc774;}.ba{fill:#ffc875;}.bb{fill:#ffc877;}.bc{fill:#ffc878;}.bd{fill:#ffc979;}.be{fill:#ffc97a;}.bf{fill:#ffca7b;}.bg{fill:#ffca7c;}.bh{fill:#ffca7d;}.bi{fill:#ffcb7e;}.bj{fill:#ffcb7f;}.bk{fill:#ffcc80;}.bl{fill:#ffcc81;}.bm{fill:#ffcc82;}.bn{fill:#ffcd83;}.bo{fill:#ffcd84;}.bp{fill:#ffce85;}.bq{fill:#ffce86;}.br{fill:#ffce87;}.bs{fill:#ffcf88;}.bt{fill:#ffcf89;}.bu{fill:#ffd08a;}.bv{fill:#ffd08b;}.bw{fill:#ffd08c;}.bx{fill:#ffd18d;}.by{fill:#ffd18e;}.bz{fill:#ffd28f;}.ca{fill:#ffd290;}.cb{fill:#ffd391;}.cc{fill:#ffd392;}.cd{fill:#ffd393;}.ce{fill:#ffd494;}.cf{fill:#ffd495;}.cg{fill:#ffd596;}.ch{fill:#ffd597;}.ci{fill:#ffd598;}.cj{fill:#ffd699;}.ck{fill:#ffd69a;}.cl{fill:#ffd79b;}.cm{fill:#ffd79c;}.cn{fill:#ffd79d;}.co{fill:#ffd89e;}.cp{fill:#ffd89f;}.cq{fill:#ffd9a0;}.cr{fill:#ffd9a1;}.cs{fill:#ffd9a2;}.ct{fill:#ffdaa3;}.cu{fill:#ffdaa4;}.cv{fill:#ffdba5;}.cw{fill:#ffdba6;}.cx{fill:#ed352b;}.cy{fill:#f9633a;}.cz{mix-blend-mode:overlay;isolation:isolate;fill:url(#b);}.da{fill:#c92c28;}.db{fill:#bab7f7;}.dc{fill:#fff;}.dd{fill:#6d573c;}.de{fill:#4d3822;}.df{fill:#ff7881;}</style><clipPath id="a"><path class="a" d="M677.232,548.66c2.591-13.939,2.283-31.043,4.18-35.224s16.417-16.244,69.739-16.244,69.115,11.5,70,16.244,1.932,27.183,0,35.224-29.874,13.672-44.184,14.744-54.325-4.021-57.1-4.557S677.232,548.66,677.232,548.66Z" transform="translate(-677.232 -497.192)"/></clipPath><linearGradient id="b" x1="1.425" y1="-0.951" x2="-0.537" y2="2.232" gradientUnits="objectBoundingBox"><stop offset="0" stop-color="#fff"/><stop offset="1" stop-color="gray"/></linearGradient></defs><g transform="translate(-313.779 -327.585)"><g transform="translate(313.779 327.585)"><path class="b" d="M407.42,412.892c-3.045,16.9-5.043,38.737,5.3,53.707,4.079,5.908,9.529,10.714,14.921,15.453l9.366,8.232c3.589,3.157,7.224,6.343,11.447,8.581,4.857,2.578,10.4,3.842,14.912,6.98s7.813,9.235,5.315,14.137c-2.312,4.54-8.162,5.725-13.237,6.212a220.325,220.325,0,0,1-27.582.893,18.456,18.456,0,0,1-6.228-.938c-5.155-2.024-7.515-7.858-9.321-13.093-.471-1.361-22.542-8.28-25.549-10.08a88.568,88.568,0,0,1-21.853-18.53c-14.159-16.644-19.1-35.878-18.648-57.488.192-9.183,1.409-18.7,6.317-26.464a31.8,31.8,0,0,1,33.009-13.65C397.971,389.643,409.671,400.4,407.42,412.892Z" transform="translate(-242.308 -198.654)"/><path class="b" d="M389.287,335.583c-25.817,13.288-46,36.483-57.482,63.153-8.645,20.08-12.488,42.029-12.251,63.844.3,27.483.176,50.21-5.2,77.219-4.387,22.055,17.114,33.736,37.79,29.657,3.433-.679,7.195-2.2,8.408-5.485.816-2.216.243-4.694-.557-6.916a35.507,35.507,0,0,0-8.8-13.525c-.275-10.682,9.2-20.918,15.975-29.176,18.184-22.158,24.572-51.9,25.091-80.555.122-6.731-.019-13.637,2.293-19.958,1.447-3.961,3.8-7.515,5.757-11.252C411.336,381.5,404.592,353.8,389.287,335.583Z" transform="translate(-313.78 -309.973)"/><path class="b" d="M415.96,342.727c-2.734-6.583-8.988-11.719-15.923-13.794-8.729-2.629-18.235-1.13-26.772,2.056a71.37,71.37,0,0,0-28.052,19.177q-.567.624-1.1,1.255l6.013,4.448,15.184,11.239a36.74,36.74,0,0,1,7-10.342,50.548,50.548,0,0,1,21.069-12.843c4.7-1.5,10.852-1.992,13.577,2.126a6.263,6.263,0,0,1-8.191,8.969c-1.726-.922-3.228-2.7-5.171-2.5-2.347.253-3.314,3.311-2.814,5.626,1.041,4.822,6.01,8.155,10.938,8.309,9.11.285,16.545-9.343,15.619-18.4A18.482,18.482,0,0,0,415.96,342.727Z" transform="translate(-246.997 -327.585)"/><g transform="translate(25.498 19.761)"><path class="b" d="M323.207,434.774c4.086,30.208,14.652,59.784,32.5,84.491s43.179,44.347,72.281,53.4a115.315,115.315,0,0,1,12.654-27.947c7.851-12.856,17.857-24.649,28.28-34.978a78.67,78.67,0,0,1,10.727-9.1,43.147,43.147,0,0,1,8.152-4.5c6.055-2.507,12.648-3.407,18.84-5.517,9.961-3.4,19.193-10.592,22.379-20.627,1.979-6.225.813-14.246.557-21.812-.179-5.543.125-10.839,2.526-14.982a30.8,30.8,0,0,0-26.711-11.566,16.2,16.2,0,0,0-17.563-11.245c-.474-.57.493-1.534,1.06-1.06-3.612-10.98-16.183-16.884-25.574-23.627a93.49,93.49,0,0,1-28.517-33.16c-1.844-3.6-3.49-7.368-6.205-10.358-4.928-5.418-12.6-7.4-19.891-8.085a79.349,79.349,0,0,0-85.822,66.226C321.023,411.7,321.664,423.356,323.207,434.774Z" transform="translate(-321.743 -333.756)"/><path class="c" d="M384.243,494.475c1.07-20.505-.535-36.547,9.888-46.877a78.669,78.669,0,0,1,10.727-9.1c7.073-16.817,18.965-31.584,34.5-41.2a110.741,110.741,0,0,0,15.424-11.255c-.179-5.543.125-10.839,2.526-14.982a30.176,30.176,0,0,0-11.143-8.8c-15.67-1.787-34.53,4.976-46.4,12.827a75.326,75.326,0,0,0-32.055,47.991c-.861,4.483-1.332,9.106-3.224,13.259-1.969,4.294-5.335,7.813-7.4,12.059C351.56,459.715,362.991,494.475,384.243,494.475Z" transform="translate(-246.954 -271.616)"/></g><g transform="translate(121.302 107.721)"><path class="c" d="M351.663,412.846l2.712-2.571c.426-.416.9-.881,1.425-1.387.538-.49,1.121-1.025,1.745-1.6,1.258-1.137,2.629-2.475,4.256-3.846q1.2-1.047,2.494-2.19c.868-.762,1.816-1.505,2.76-2.305,1.873-1.617,3.983-3.218,6.141-4.957,4.4-3.381,9.308-6.964,14.591-10.531,5.309-3.529,10.49-6.7,15.289-9.487,2.427-1.338,4.71-2.68,6.923-3.794,1.1-.573,2.145-1.165,3.176-1.678s2.03-1,2.978-1.473c1.883-.983,3.644-1.742,5.175-2.472l2.142-1.009,1.822-.791,3.41-1.53s-1.313.186-3.7.586l-1.982.343c-.72.141-1.5.324-2.334.509-1.668.391-3.6.788-5.661,1.418l-3.266.957c-1.137.343-2.286.772-3.493,1.188-2.427.81-4.937,1.876-7.589,2.994a105.861,105.861,0,0,0-30.966,20.749c-2.046,2.027-3.986,3.942-5.655,5.879-.845.961-1.681,1.86-2.43,2.779s-1.447,1.809-2.126,2.658c-1.37,1.671-2.469,3.3-3.465,4.7-.49.7-.954,1.348-1.361,1.963-.391.621-.746,1.191-1.07,1.7C352.335,411.7,351.663,412.846,351.663,412.846Z" transform="translate(-351.663 -361.227)"/></g><g transform="translate(99.692 99.62)"><path class="c" d="M344.914,439.463l1.835-4.233c.288-.679.605-1.434.954-2.261.371-.816.826-1.684,1.281-2.626.941-1.87,1.88-4.041,3.218-6.3q.946-1.715,1.976-3.589c.692-1.242,1.527-2.472,2.318-3.778,1.537-2.641,3.468-5.277,5.389-8.1a153.6,153.6,0,0,1,30.726-31.828c2.757-2.02,5.325-4.041,7.909-5.671,1.281-.836,2.478-1.716,3.7-2.45l3.516-2.1c2.213-1.415,4.351-2.43,6.186-3.439.925-.483,1.774-.97,2.578-1.37l2.229-1.034,4.166-1.982s-1.6.378-4.5,1.057l-2.417.6c-.877.246-1.806.57-2.818.893-2.011.682-4.361,1.358-6.811,2.449q-1.864.783-3.9,1.636c-1.351.586-2.687,1.326-4.108,2.03a99.178,99.178,0,0,0-8.8,5.043,100.983,100.983,0,0,0-32.1,33.252,100.272,100.272,0,0,0-4.733,8.969c-.653,1.447-1.345,2.808-1.883,4.179q-.778,2.06-1.5,3.951a71.566,71.566,0,0,0-2.209,6.891c-.288,1.025-.583,1.966-.794,2.85l-.512,2.437Z" transform="translate(-344.914 -358.697)"/></g><g transform="translate(104.824 209.797)"><path class="c" d="M358.685,393.106s-.419.179-1.149.564a18.578,18.578,0,0,0-2.907,1.908A21.541,21.541,0,0,0,351,399.222a20.811,20.811,0,0,0-4.438,11.61,21.617,21.617,0,0,0,.279,5.136,18.363,18.363,0,0,0,.893,3.362c.288.775.48,1.188.48,1.188s.2-.426.5-1.172.743-1.809,1.258-3.067c.509-1.226,1.114-2.68,1.78-4.287.666-1.572,1.354-3.263,2.03-5.053.692-1.784,1.3-3.5,1.854-5.117.576-1.646,1.1-3.132,1.537-4.384.451-1.281.826-2.373,1.1-3.122S358.685,393.106,358.685,393.106Z" transform="translate(-346.517 -393.106)"/></g><g transform="translate(54.557 81.814)"><path class="c" d="M362.431,353.136s.134,1.78.381,5c.067.8.144,1.687.224,2.658.061.973.067,2.04.112,3.176.051,2.273.25,4.845.134,7.7q-.024,2.132-.054,4.46c-.022,1.55-.186,3.16-.269,4.822-.112,3.327-.58,6.859-.951,10.567a177.368,177.368,0,0,1-12.443,46.643c-1.524,3.4-2.875,6.7-4.435,9.635-.756,1.483-1.418,2.962-2.168,4.316s-1.482,2.651-2.177,3.894c-1.322,2.533-2.773,4.662-3.951,6.609-.6.964-1.14,1.883-1.674,2.7-.557.8-1.066,1.534-1.521,2.193l-2.821,4.143,3.58-3.519,1.908-1.912c.679-.72,1.364-1.54,2.126-2.408,1.492-1.755,3.295-3.7,4.982-6.068.871-1.169,1.783-2.4,2.734-3.676s1.79-2.712,2.735-4.15c1.934-2.853,3.65-6.1,5.5-9.51a116.893,116.893,0,0,0,12.92-48.439c.09-3.881.221-7.553-.035-10.989-.1-1.719-.131-3.375-.3-4.96q-.283-2.373-.541-4.55c-.282-2.9-.877-5.478-1.3-7.742-.227-1.13-.413-2.184-.643-3.144q-.384-1.431-.7-2.61C362.911,354.855,362.431,353.136,362.431,353.136Z" transform="translate(-330.818 -353.136)"/></g></g><path class="c" d="M443.679,404.321c-2.747,15.251-4.55,34.956,4.784,48.465,3.682,5.328,8.6,9.667,13.467,13.945q4.222,3.713,8.45,7.429a55.365,55.365,0,0,0,10.33,7.742c4.384,2.325,9.382,3.468,13.458,6.3s7.048,8.335,4.793,12.757c-2.088,4.1-7.364,5.168-11.943,5.6a198.1,198.1,0,0,1-24.889.807,16.713,16.713,0,0,1-5.623-.845c-4.652-1.825-6.779-7.089-8.408-11.815-.426-1.23-20.342-7.47-23.054-9.1a79.811,79.811,0,0,1-19.721-16.721c-12.776-15.017-17.233-32.372-16.826-51.872.173-8.287,1.271-16.878,5.7-23.884a28.692,28.692,0,0,1,29.788-12.318C435.152,383.341,445.709,393.05,443.679,404.321Z" transform="translate(164.469 115.806)"/><g transform="translate(-158.492 87.363)"><g transform="translate(635.172 488.768)"><g transform="translate(0 48.83)"><path class="d" d="M644.663,625.246c-22.779-12.968-3.09-29.051,43.366-35.31s102.582-.822,125.361,12.146,3.586,28.555-42.87,34.815S667.443,638.214,644.663,625.246Z" transform="translate(-635.172 -587.338)"/></g><g transform="translate(167.068 20.742)"><path class="e" d="M972.458,530.711l-.035-.072c.017.039.034.078.05.117Z" transform="translate(-972.423 -530.639)"/></g><g transform="translate(20.836 4.173)"><g class="f"><rect class="g" width="145.849" height="67.284" transform="translate(0 0)"/><path class="g" d="M752.5,564.466H676.232V496.192H823.072v68.275Z" transform="translate(-676.727 -496.687)"/><path class="h" d="M752.5,564.466H676.232V496.192H823.072v68.275Z" transform="translate(-676.727 -496.687)"/><path class="i" d="M752.5,564.466H676.232V496.192H823.072v68.275Z" transform="translate(-676.727 -496.687)"/><path class="j" d="M752.5,564.466H676.232V496.192H823.072v68.275Z" transform="translate(-676.727 -496.687)"/><path class="k" d="M752.5,564.466H676.232V496.192H823.072v68.275Z" transform="translate(-676.727 -496.687)"/><path class="l" d="M752.5,564.466H676.232V496.192H823.072v68.275Z" transform="translate(-676.727 -496.687)"/><path class="m" d="M752.5,564.466H676.232V496.192H823.072v68.275Z" transform="translate(-676.727 -496.687)"/><path class="n" d="M752.5,564.466H676.232V496.192H823.072v68.275Z" transform="translate(-676.727 -496.687)"/><path class="o" d="M752.5,564.466H676.232V496.192H823.072v68.275Z" transform="translate(-676.727 -496.687)"/><path class="p" d="M752.5,564.466H676.232V496.192H823.072v68.275Z" transform="translate(-676.727 -496.687)"/><path class="q" d="M752.5,564.466H676.232V496.192H823.072v68.275Z" transform="translate(-676.727 -496.687)"/><path class="r" d="M752.5,564.466H676.232V496.192H823.072v68.275Z" transform="translate(-676.727 -496.687)"/><path class="s" d="M752.5,564.466H676.232V496.192H823.072v68.275Z" transform="translate(-676.727 -496.687)"/><path class="t" d="M752.5,564.466H676.232V496.192H823.072v68.275Z" transform="translate(-676.727 -496.687)"/><path class="u" d="M752.5,564.466H676.232V496.192H823.072v68.275Z" transform="translate(-676.727 -496.687)"/><path class="v" d="M752.5,564.466H676.232V496.192H823.072v68.275Z" transform="translate(-676.727 -496.687)"/><path class="w" d="M752.5,564.466H676.232V496.192H823.072v68.275Z" transform="translate(-676.727 -496.687)"/><path class="x" d="M752.2,564.466H679.79v.175q-2.087-.5-4.147-1.027h.292V496.192h146.84v68.275Z" transform="translate(-676.43 -496.687)"/><path class="y" d="M749.086,564.466H694.475v2.427q-8.626-1.519-16.873-3.5-4.12-.986-8.135-2.082h3.351V496.192h146.84V563.4h.913q-8.239,1.973-16.873,3.5v-2.427Z" transform="translate(-673.314 -496.687)"/><path class="z" d="M750.139,564.466h-53.9V565.6q-8.514-1.5-16.654-3.45-4.066-.974-8.03-2.055h2.317V496.192h146.84V561.66h2.011q-1.011.25-2.027.494-8.132,1.947-16.654,3.45v-1.137Z" transform="translate(-674.367 -496.687)"/><path class="aa" d="M751.193,564.466h-36.05v2.343a285.4,285.4,0,0,1-33.577-5.9q-4.013-.961-7.924-2.028h1.283v-62.69h146.84v63.73h3.043q-1.981.507-3.987.987a285.422,285.422,0,0,1-33.577,5.9v-2.343Z" transform="translate(-675.42 -496.687)"/><path class="ab" d="M752.246,567.517a296.308,296.308,0,0,1-68.7-7.852q-3.959-.948-7.818-2h.249V496.192h146.84v62.5h2.062q-1.955.5-3.934.974A296.315,296.315,0,0,1,752.246,567.517Z" transform="translate(-676.474 -496.687)"/><path class="ac" d="M749.449,566.167a292.307,292.307,0,0,1-67.771-7.745q-3.906-.936-7.713-1.974-1.9-.519-3.78-1.064h3V496.192h146.84V557.46h1.08q-1.928.493-3.881.962A292.314,292.314,0,0,1,749.449,566.167Z" transform="translate(-673.676 -496.687)"/><path class="ad" d="M750.555,564.817a288.279,288.279,0,0,1-66.842-7.64q-3.852-.922-7.607-1.947-1.877-.512-3.728-1.049h1.909V496.192h146.84v60.037h.1q-1.9.487-3.828.948A288.282,288.282,0,0,1,750.555,564.817Z" transform="translate(-674.783 -496.687)"/><path class="ae" d="M751.661,563.466a284.3,284.3,0,0,1-65.914-7.533q-3.8-.91-7.5-1.92-1.851-.5-3.676-1.034h.823V496.192h146.84v57.821h2.843q-3.7,1.01-7.5,1.92A284.308,284.308,0,0,1,751.661,563.466Z" transform="translate(-675.889 -496.687)"/><path class="af" d="M749.127,562.116a280.269,280.269,0,0,1-64.986-7.428q-7.49-1.793-14.594-3.98h3.312V496.192H819.7v56.6h1.809q-3.649.995-7.4,1.892A280.268,280.268,0,0,1,749.127,562.116Z" transform="translate(-673.354 -496.687)"/><path class="ag" d="M750.285,560.766a276.273,276.273,0,0,1-64.057-7.321q-7.383-1.768-14.385-3.923h2.175v-53.33h146.84v55.387h.775q-3.6.981-7.29,1.866A276.271,276.271,0,0,1,750.285,560.766Z" transform="translate(-674.512 -496.687)"/><path class="ah" d="M751.443,559.416a272.3,272.3,0,0,1-63.129-7.215q-7.276-1.743-14.177-3.866h1.038V496.192h146.84v53.18h3.262q-1.748.507-3.521.99-3.544.967-7.184,1.839A272.294,272.294,0,0,1,751.443,559.416Z" transform="translate(-675.67 -496.687)"/><path class="ai" d="M749.167,558.066a268.267,268.267,0,0,1-62.2-7.109Q679.8,549.24,673,547.147q-1.7-.522-3.371-1.067H672.9V496.192h146.84v51.977h2.176q-1.722.5-3.469.976-3.493.953-7.079,1.812A268.265,268.265,0,0,1,749.167,558.066Z" transform="translate(-673.394 -496.687)"/><path class="aj" d="M750.376,556.715a264.266,264.266,0,0,1-61.272-7q-7.062-1.691-13.76-3.753-1.673-.514-3.321-1.051h2.086V496.192h146.84v50.775h1.091q-1.7.492-3.418.961-3.441.939-6.973,1.785A264.264,264.264,0,0,1,750.376,556.715Z" transform="translate(-674.603 -496.687)"/><path class="ak" d="M751.585,555.365a260.26,260.26,0,0,1-60.344-6.9q-6.955-1.665-13.552-3.7-1.647-.507-3.271-1.035h.9V496.192h146.84v48.581h3.323q-6.59,2.027-13.552,3.7A260.259,260.259,0,0,1,751.585,555.365Z" transform="translate(-675.813 -496.687)"/><path class="al" d="M749.564,554.015a256.264,256.264,0,0,1-59.416-6.791q-6.848-1.64-13.343-3.639-3.244-1-6.392-2.081H673.3V496.192h146.84v47.394h2.187q-6.489,2-13.343,3.639A256.259,256.259,0,0,1,749.564,554.015Z" transform="translate(-673.791 -496.687)"/><path class="am" d="M750.823,552.665a252.258,252.258,0,0,1-58.487-6.685q-6.741-1.615-13.135-3.582-3.194-.982-6.292-2.048h1.646V496.192h146.84V542.4h1.05q-6.387,1.964-13.135,3.582A252.258,252.258,0,0,1,750.823,552.665Z" transform="translate(-675.051 -496.687)"/><path class="an" d="M752.083,551.315a248.26,248.26,0,0,1-57.559-6.579q-6.634-1.588-12.926-3.525-3.143-.966-6.192-2.016h.409v-43h146.84v44.032h3.033q-1.548.5-3.12.987-6.286,1.934-12.926,3.525A248.256,248.256,0,0,1,752.083,551.315Z" transform="translate(-676.311 -496.687)"/><path class="ao" d="M750.312,549.964a244.263,244.263,0,0,1-56.631-6.472q-6.527-1.563-12.717-3.468-3.093-.951-6.093-1.983-1.5-.516-2.976-1.051h2.148v-40.8h146.84v42.86h1.846q-1.523.5-3.069.971-6.185,1.9-12.718,3.468A244.258,244.258,0,0,1,750.312,549.964Z" transform="translate(-674.539 -496.687)"/><path class="ap" d="M751.621,548.614a240.262,240.262,0,0,1-55.7-6.366q-6.42-1.537-12.509-3.412-3.041-.935-5.993-1.951-1.476-.507-2.927-1.034h.863V496.192h146.84v41.689h.658q-1.5.488-3.019.956-6.083,1.871-12.509,3.412A240.254,240.254,0,0,1,751.621,548.614Z" transform="translate(-675.848 -496.687)"/><path class="aq" d="M750.047,547.264A236.227,236.227,0,0,1,695.273,541a192.534,192.534,0,0,1-23.9-7.344h2.409V496.192h146.84v39.539h2.4q-2.9,1-5.893,1.919-5.982,1.839-12.3,3.354A236.223,236.223,0,0,1,750.047,547.264Z" transform="translate(-674.274 -496.687)"/><path class="ar" d="M751.405,545.914a232.253,232.253,0,0,1-53.846-6.154,189.281,189.281,0,0,1-23.5-7.22h1.075V496.192h146.84v38.385h1.159q-2.852.981-5.793,1.885-5.881,1.809-12.092,3.3A232.248,232.248,0,0,1,751.405,545.914Z" transform="translate(-675.632 -496.687)"/><path class="as" d="M750.024,544.564a228.225,228.225,0,0,1-52.917-6.048,185.911,185.911,0,0,1-23.092-7.1q-1.356-.519-2.689-1.055h2.43V496.192H820.6v36.247h2.7q-1.379.5-2.781.983-2.8.964-5.693,1.853-5.779,1.777-11.884,3.241A228.221,228.221,0,0,1,750.024,544.564Z" transform="translate(-674.252 -496.687)"/><path class="at" d="M751.431,543.214a224.223,224.223,0,0,1-51.989-5.942,182.641,182.641,0,0,1-22.687-6.971q-1.332-.509-2.642-1.036h1.05V496.192H822V531.3h1.417q-1.355.492-2.732.966-2.754.947-5.593,1.82-5.677,1.746-11.675,3.184A224.216,224.216,0,0,1,751.431,543.214Z" transform="translate(-675.658 -496.687)"/><path class="au" d="M750.241,541.863a220.243,220.243,0,0,1-51.06-5.836A179.406,179.406,0,0,1,676.9,529.18q-2.616-1-5.143-2.07h2.217V496.192h146.84V529.18h2.771a179.4,179.4,0,0,1-22.282,6.847A220.246,220.246,0,0,1,750.241,541.863Z" transform="translate(-674.469 -496.687)"/><path class="av" d="M751.695,540.513a216.214,216.214,0,0,1-50.132-5.73,176.141,176.141,0,0,1-21.878-6.722q-2.57-.982-5.049-2.033h.791V496.192h146.84v31.869H823.7a176.14,176.14,0,0,1-21.877,6.722A216.218,216.218,0,0,1,751.695,540.513Z" transform="translate(-675.922 -496.687)"/><path class="aw" d="M750.693,539.163a212.213,212.213,0,0,1-49.2-5.624,172.867,172.867,0,0,1-21.472-6.6q-2.522-.965-4.956-1.995-1.217-.516-2.411-1.046h1.774V496.192h146.84v30.749h.1a172.881,172.881,0,0,1-21.472,6.6A212.215,212.215,0,0,1,750.693,539.163Z" transform="translate(-674.92 -496.687)"/><path class="ax" d="M749.83,537.813a208.212,208.212,0,0,1-48.275-5.518,169.528,169.528,0,0,1-21.067-6.473q-4.949-1.893-9.548-4.042h2.622V496.192H820.4v28.667h1.223q-1.216.49-2.453.963a169.525,169.525,0,0,1-21.067,6.473A208.212,208.212,0,0,1,749.83,537.813Z" transform="translate(-674.057 -496.687)"/><path class="ay" d="M751.375,536.463a204.208,204.208,0,0,1-47.347-5.412,166.366,166.366,0,0,1-20.662-6.349q-4.854-1.856-9.364-3.964h1.1V496.192h146.84v26.591h2.205q-2.341.991-4.769,1.92a166.363,166.363,0,0,1-20.662,6.349A204.213,204.213,0,0,1,751.375,536.463Z" transform="translate(-675.602 -496.687)"/><path class="az" d="M750.693,535.112a200.207,200.207,0,0,1-46.418-5.305,163.077,163.077,0,0,1-20.257-6.224q-4.759-1.82-9.18-3.886-1.1-.516-2.186-1.047h1.773V496.192h146.84V521.7h.779q-2.3.972-4.675,1.882a163.1,163.1,0,0,1-20.257,6.224A200.213,200.213,0,0,1,750.693,535.112Z" transform="translate(-674.921 -496.687)"/><path class="ba" d="M750.146,533.762a196.2,196.2,0,0,1-45.49-5.2,159.805,159.805,0,0,1-19.851-6.1q-4.664-1.783-9-3.808-2.165-1.011-4.24-2.08h2.311V496.192h146.84v23.459h1.58q-1.1.49-2.229.967-2.25.953-4.582,1.845a159.836,159.836,0,0,1-19.851,6.1A196.21,196.21,0,0,1,750.146,533.762Z" transform="translate(-674.373 -496.687)"/><path class="bb" d="M751.779,532.412a192.2,192.2,0,0,1-44.562-5.093,156.591,156.591,0,0,1-19.447-5.975q-4.568-1.747-8.813-3.731-2.121-.991-4.154-2.037h.707V496.192h146.84v21.42h2.25q-4.241,1.982-8.813,3.731a156.579,156.579,0,0,1-19.446,5.975A192.207,192.207,0,0,1,751.779,532.412Z" transform="translate(-676.007 -496.687)"/><path class="bc" d="M749.448,531.061c-30.955,0-58.979-7.1-79.265-18.587h3V496.192h146.84V516.57h.732q-4.152,1.94-8.63,3.653a153.386,153.386,0,0,1-19.041,5.851A188.206,188.206,0,0,1,749.448,531.061Z" transform="translate(-673.675 -496.687)"/><path class="bd" d="M751.165,529.712c-30.3,0-57.724-6.952-77.578-18.191h1.31V496.192h146.84v17.384h3.2q-1.948,1-3.981,1.952-4.064,1.9-8.446,3.576a150.034,150.034,0,0,1-18.636,5.726A184.174,184.174,0,0,1,751.165,529.712Z" transform="translate(-675.393 -496.687)"/><path class="be" d="M749.263,528.361c-29.638,0-56.47-6.8-75.892-17.8q-1.821-1.031-3.554-2.11H673V496.192h146.84v16.385h1.592q-1.906.981-3.894,1.91-3.975,1.857-8.262,3.5a146.678,146.678,0,0,1-18.231,5.6A180.2,180.2,0,0,1,749.263,528.361Z" transform="translate(-673.491 -496.687)"/><path class="bf" d="M751.062,527.011c-28.979,0-55.214-6.65-74.205-17.4q-1.78-1.008-3.475-2.063h1.412V496.192h146.84v14.415h1.832q-.912.491-1.843.971-1.864.959-3.807,1.868-3.888,1.816-8.079,3.42a143.416,143.416,0,0,1-17.826,5.477A176.164,176.164,0,0,1,751.062,527.011Z" transform="translate(-675.289 -496.687)"/><path class="bg" d="M749.577,525.661c-28.32,0-53.959-6.5-72.518-17q-3.481-1.97-6.619-4.123h2.87v-8.341h146.84v12.464H822.1C803.536,519.162,777.9,525.661,749.577,525.661Z" transform="translate(-673.804 -496.687)"/><path class="bh" d="M751.451,524.311c-27.662,0-52.7-6.347-70.832-16.61q-3.4-1.925-6.465-4.027h1.029v-7.482h146.84V507.7h.26C804.156,517.964,779.113,524.311,751.451,524.311Z" transform="translate(-675.679 -496.687)"/><path class="bi" d="M750.369,522.96c-27,0-51.45-6.2-69.146-16.214q-3.318-1.878-6.311-3.931-1.494-1.025-2.9-2.091H674.1v-4.532h146.84v8.632h1.812q-1.578.983-3.238,1.923C801.818,516.764,777.372,522.96,750.369,522.96Z" transform="translate(-674.596 -496.687)"/><path class="bj" d="M749.607,521.61c-26.344,0-50.2-6.045-67.459-15.819A77.765,77.765,0,0,1,670.5,497.8h2.841v-1.607h146.84v5.764h3.045q-2.916,2-6.157,3.835C799.8,515.565,775.951,521.61,749.607,521.61Z" transform="translate(-673.834 -496.687)"/><path class="bk" d="M751.621,520.26c-25.686,0-48.94-5.894-65.773-15.423a75.859,75.859,0,0,1-11.358-7.793h.863v-.852h146.84V501.1h1.2q-2.843,1.951-6,3.74C800.561,514.366,777.307,520.26,751.621,520.26Z" transform="translate(-675.848 -496.687)"/><path class="bl" d="M751.234,516.888c-25.027,0-47.685-5.742-64.086-15.027a73.9,73.9,0,0,1-11.067-7.594q-1.222-1.023-2.357-2.082l1.242,1.985h146.84v2.108h2.054q-1.3.988-2.69,1.938-2.77,1.9-5.849,3.644C798.919,511.145,776.262,516.888,751.234,516.888Z" transform="translate(-675.462 -494.665)"/><path class="bm" d="M755.65,516.89c-24.369,0-46.43-5.592-62.4-14.632a71.98,71.98,0,0,1-10.776-7.394v.658H826.222l2.6-.658a71.983,71.983,0,0,1-10.776,7.394C802.08,511.3,780.019,516.89,755.65,516.89Z" transform="translate(-679.878 -496.017)"/><path class="bn" d="M757.665,514.77c-23.71,0-45.175-5.44-60.714-14.237a70,70,0,0,1-10.484-7.193v1.413H828.236l.626-1.413a70.01,70.01,0,0,1-10.484,7.193C802.84,509.33,781.375,514.77,757.665,514.77Z" transform="translate(-681.892 -495.248)"/><path class="bo" d="M759.679,512.651c-23.052,0-43.921-5.29-59.027-13.841a68.089,68.089,0,0,1-10.193-6.994v2.168H828.9v-2.168a68.081,68.081,0,0,1-10.193,6.994C803.6,507.362,782.73,512.651,759.679,512.651Z" transform="translate(-683.907 -494.479)"/><path class="bp" d="M761.694,510.532c-22.393,0-42.666-5.138-57.34-13.446a66.125,66.125,0,0,1-9.9-6.794v2.923H828.936v-2.923a66.16,66.16,0,0,1-9.9,6.794C804.359,505.394,784.087,510.532,761.694,510.532Z" transform="translate(-685.922 -493.71)"/><path class="bq" d="M768.324,511.906c-21.734,0-41.411-4.987-55.654-13.05q-2.67-1.511-5.08-3.164v.248H829.057v-.248q-2.406,1.65-5.08,3.164C809.734,506.919,790.058,511.906,768.324,511.906Z" transform="translate(-692.551 -496.435)"/><path class="br" d="M770.2,509.681c-21.076,0-40.156-4.836-53.967-12.655q-2.59-1.466-4.926-3.068v1.107H829.091v-1.107q-2.333,1.6-4.926,3.068C810.354,504.846,791.274,509.681,770.2,509.681Z" transform="translate(-694.426 -495.56)"/><path class="bs" d="M772.073,507.457c-20.417,0-38.9-4.685-52.281-12.259q-2.509-1.42-4.772-2.972v1.965H829.126v-1.965q-2.26,1.55-4.772,2.972C810.974,502.772,792.49,507.457,772.073,507.457Z" transform="translate(-696.301 -494.686)"/><path class="bt" d="M773.948,505.232c-19.758,0-37.646-4.534-50.594-11.864q-2.428-1.375-4.618-2.877v2.824H829.161v-2.824q-2.188,1.5-4.618,2.877C811.594,500.7,793.707,505.232,773.948,505.232Z" transform="translate(-698.176 -493.811)"/><path class="bu" d="M780.37,505.839c-19.1,0-36.391-4.383-48.908-11.469v.9h97.816v-.9C816.761,501.456,799.469,505.839,780.37,505.839Z" transform="translate(-704.597 -495.768)"/><path class="bv" d="M782.088,503.516c-18.441,0-35.136-4.232-47.222-11.073V494.3h94.443v-1.857C817.224,499.285,800.529,503.516,782.088,503.516Z" transform="translate(-706.315 -494.796)"/><path class="bw" d="M783.806,501.193c-17.783,0-33.882-4.08-45.535-10.677v2.812h91.07v-2.812C817.687,497.113,801.588,501.193,783.806,501.193Z" transform="translate(-708.033 -493.823)"/><path class="bx" d="M790.01,501.178a104.1,104.1,0,0,1-24.137-2.759,84.833,84.833,0,0,1-10.534-3.236q-2.474-.947-4.773-2.021v1.5h78.89v-1.5q-2.3,1.073-4.774,2.021a84.8,84.8,0,0,1-10.533,3.236A104.107,104.107,0,0,1,790.01,501.178Z" transform="translate(-714.237 -495.158)"/><path class="by" d="M796.231,500.747a100.1,100.1,0,0,1-23.209-2.653,81.566,81.566,0,0,1-10.129-3.112v.6h66.675v-.6a81.539,81.539,0,0,1-10.128,3.112A100.106,100.106,0,0,1,796.231,500.747Z" transform="translate(-720.458 -496.077)"/><path class="bz" d="M797.589,498.256a96.1,96.1,0,0,1-22.281-2.546,78.282,78.282,0,0,1-9.723-2.988v1.719h64.008v-1.719a78.274,78.274,0,0,1-9.723,2.988A96.1,96.1,0,0,1,797.589,498.256Z" transform="translate(-721.817 -494.936)"/><path class="ca" d="M798.948,495.766a92.071,92.071,0,0,1-21.353-2.441,75.027,75.027,0,0,1-9.318-2.863V493.3h61.341v-2.839a75.019,75.019,0,0,1-9.318,2.863A92.074,92.074,0,0,1,798.948,495.766Z" transform="translate(-723.175 -493.796)"/><path class="cb" d="M809.385,496.064a88.1,88.1,0,0,1-20.424-2.334v1.22h40.848v-1.22A88.1,88.1,0,0,1,809.385,496.064Z" transform="translate(-733.613 -495.445)"/><path class="cc" d="M779.17,496.192h0Z" transform="translate(-703.397 -496.687)"/><path class="cd" d="M781.6,496.192h0Z" transform="translate(-705.827 -496.687)"/><path class="ce" d="M784.029,496.192h0Z" transform="translate(-708.256 -496.687)"/><path class="cf" d="M786.459,496.192h0Z" transform="translate(-710.686 -496.687)"/><path class="cg" d="M788.888,496.192h0Z" transform="translate(-713.115 -496.687)"/><path class="ch" d="M791.318,496.192h0Z" transform="translate(-715.545 -496.687)"/><path class="ci" d="M793.747,496.192h0Z" transform="translate(-717.974 -496.687)"/><path class="cj" d="M796.177,496.192h0Z" transform="translate(-720.404 -496.687)"/><path class="ck" d="M798.606,496.192h0Z" transform="translate(-722.834 -496.687)"/><path class="cl" d="M801.036,496.192h0Z" transform="translate(-725.263 -496.687)"/><path class="cm" d="M803.465,496.192h0Z" transform="translate(-727.693 -496.687)"/><path class="cn" d="M805.895,496.192h0Z" transform="translate(-730.122 -496.687)"/><path class="co" d="M808.324,496.192h0Z" transform="translate(-732.552 -496.687)"/><path class="cp" d="M810.754,496.192h0Z" transform="translate(-734.981 -496.687)"/><path class="cq" d="M813.183,496.192h0Z" transform="translate(-737.411 -496.687)"/><path class="cr" d="M815.613,496.192h0Z" transform="translate(-739.84 -496.687)"/><path class="cs" d="M818.042,496.192h0Z" transform="translate(-742.27 -496.687)"/><path class="ct" d="M820.472,496.192h0Z" transform="translate(-744.699 -496.687)"/><path class="cu" d="M822.9,496.192h0Z" transform="translate(-747.129 -496.687)"/><path class="cv" d="M825.331,496.192h0Z" transform="translate(-749.558 -496.687)"/><path class="cw" d="M827.76,496.192h0Z" transform="translate(-751.988 -496.687)"/></g></g><path class="cx" d="M823.369,577.4a8.181,8.181,0,0,0-.652-3.744q-.273-.678-.546-1.356-1.13-2.8-2.258-5.608l-3.326-8.261-3.812-9.467-3.714-9.225-3.033-7.534-1.77-4.395-.229-.569-1.335-3.315,0-.008,0,.008h0a6.055,6.055,0,0,1,.017,4.464,10.236,10.236,0,0,1-2.594,3.591,29.132,29.132,0,0,1-8.282,5.084,93.808,93.808,0,0,1-20.713,5.941,200.371,200.371,0,0,1-22.7,2.841c-7.723.555-15.483.741-23.229.59-7.716-.15-15.428-.63-23.079-1.511a162.263,162.263,0,0,1-22.295-3.993,84.426,84.426,0,0,1-10.442-3.38,35.669,35.669,0,0,1-8.864-4.878c-2.259-1.8-4.227-4.242-4.081-7.032a5.63,5.63,0,0,1,.571-1.8l.654-1.612a8.061,8.061,0,0,0-.773,1.438l-4.145,10.189-16.164,39.727,0,0,0,0a7.685,7.685,0,0,0-.406,4.566,9.924,9.924,0,0,0,1.983,3.929,25.272,25.272,0,0,0,7.436,5.909c6.2,3.529,13.26,5.812,20.314,7.659a196.305,196.305,0,0,0,22.362,4.311c7.609,1.069,15.278,1.753,22.964,2.222,7.729.472,15.483.62,23.229.524q11.578-.143,23.119-1.112c7.624-.65,15.225-1.588,22.734-2.913a148.762,148.762,0,0,0,21.614-5.292,74.892,74.892,0,0,0,10.009-4.111,31.153,31.153,0,0,0,8.1-5.567,10.542,10.542,0,0,0,3.337-6.308l0,.06,0-.06C823.467,576.212,823.357,577.544,823.369,577.4Z" transform="translate(-635.588 -505.654)"/><g transform="translate(20.836)"><path class="cy" d="M750.09,495.042c26.983,0,51.811,4.209,63.252,10.722,3.262,1.857,4.116,3.174,4.3,3.542-.355.762-2.4,3-8.4,5.507-6.654,2.776-16.059,5.037-27.2,6.538a232.97,232.97,0,0,1-30.948,1.978c-26.984,0-51.813-4.209-63.255-10.722-3.262-1.857-4.116-3.174-4.3-3.541.354-.762,2.4-3,8.4-5.506,6.654-2.777,16.059-5.038,27.2-6.539a232.959,232.959,0,0,1,30.949-1.978h0m0-6.273A240.665,240.665,0,0,0,718.3,490.8c-36.37,4.9-51.4,17.1-33.563,27.256,12.81,7.293,39.089,11.543,66.358,11.543a240.676,240.676,0,0,0,31.786-2.034c36.37-4.9,51.4-17.1,33.563-27.256-12.811-7.293-39.089-11.544-66.359-11.543Z" transform="translate(-677.232 -488.768)"/></g></g><path class="cz" d="M821.887,553.131a97.1,97.1,0,0,1-19.619,5.469,200.357,200.357,0,0,1-22.7,2.841c-7.723.555-15.483.741-23.23.59-7.715-.15-15.427-.63-23.079-1.511a170.506,170.506,0,0,1-18.985-3.184l-16.56,54.072a198.517,198.517,0,0,0,21.7,4.144c7.609,1.069,15.278,1.753,22.964,2.222,7.729.472,15.483.62,23.229.524q11.578-.143,23.119-1.112c7.624-.65,15.225-1.588,22.734-2.913a148.77,148.77,0,0,0,21.614-5.292q1.49-.5,2.958-1.051C832.066,592.875,825.389,565.687,821.887,553.131Z" transform="translate(-31.562 -32.479)"/><path class="da" d="M645.756,596.076a33.1,33.1,0,0,0,4.762,3.218,65.129,65.129,0,0,0,10.577,4.724l18.736-53.187c-1.872-.591-3.72-1.241-5.525-1.973a37.991,37.991,0,0,1-8-4.224Z" transform="translate(-5.341 -28.192)"/><path class="db" d="M973.372,599.272a31.148,31.148,0,0,0,8.094-5.567,14.078,14.078,0,0,0,2.034-2.553l-18.06-45.7a12.858,12.858,0,0,1-1.588,1.787,24.448,24.448,0,0,1-5.763,3.887c.086.152-.015.3-.473.443l14.279,48.428C972.39,599.759,972.884,599.52,973.372,599.272Z" transform="translate(-162.711 -28.601)"/><g transform="translate(724.129 554.314)"><g transform="translate(0 0)"><path class="dc" d="M837,633.7c.027,3.6-2.009,5.188-5.269,4.557-1.624-.315-3.227-.743-4.852-1.054a6.052,6.052,0,0,0-3.506.405,9.23,9.23,0,0,1-5.471.37c-1.826-.366-2.622-1.64-2.991-3.312a6.574,6.574,0,0,1,1.693-6.069,9.731,9.731,0,0,1,1.646-1.533,7.537,7.537,0,0,0,2.321-2.837,5.48,5.48,0,0,1,8.491-1.852,8.633,8.633,0,0,1,1.768,2.209,8.206,8.206,0,0,0,2.366,2.542A8.3,8.3,0,0,1,837,633.7Z" transform="translate(-814.744 -621.082)"/></g></g><path class="dc" d="M826,598.417c.562,3.343-.785,6.357-3.008,6.73s-4.48-2.035-5.042-5.378.785-6.357,3.008-6.73S825.441,595.074,826,598.417Z" transform="translate(-92.171 -52.598)"/><path class="dc" d="M839.077,598.417c-.562,3.343.785,6.357,3.008,6.73s4.48-2.035,5.042-5.378-.785-6.357-3.008-6.73S839.638,595.074,839.077,598.417Z" transform="translate(-102.83 -52.598)"/><path class="dc" d="M855.3,613.565c-1.155,2.823-.57,5.733,1.307,6.5s4.335-.9,5.49-3.721.569-5.733-1.308-6.5S856.456,610.742,855.3,613.565Z" transform="translate(-110.782 -61.003)"/><ellipse class="dc" cx="3.672" cy="5.522" rx="3.672" ry="5.522" transform="translate(716.905 550.847) rotate(-24.482)"/></g><g transform="translate(447.542 443.132)"><path class="b" d="M370.43,424.992s-.717-4.64,2.113-19.779,22.5-35.494,48.977-40.383c9.231-1.707,20.3-1.335,30.793-.131,10.515,1.044,21.408,3.023,30.07,6.641,24.844,10.378,39.762,34.434,39.327,49.832s-2.113,19.775-2.113,19.775,6.471,29.823,4.608,35.942-17.358,38.151-87.174,30.681-78.186-42.055-78.711-48.427S370.43,424.992,370.43,424.992Z" transform="translate(-349.5 -363.671)"/><g transform="translate(85.495 10.111)"><path class="c" d="M382.255,368.29l.519-.138a9.744,9.744,0,0,1,1.483-.279,12.439,12.439,0,0,1,5.315.714,30.268,30.268,0,0,1,7.06,3.756,46.4,46.4,0,0,0,9.023,5.3,15.534,15.534,0,0,0,5.7,1.134,14.48,14.48,0,0,0,5.283-1.1c3.074-1.242,5.4-2.734,7.547-3.455a11.279,11.279,0,0,1,5.29-.737,7.207,7.207,0,0,1,1.46.343l.5.192-.436-.314a6.793,6.793,0,0,0-1.4-.711,11.067,11.067,0,0,0-5.818-.333c-2.481.394-5.178,1.611-8.021,2.44a13.251,13.251,0,0,1-4.355.592,14.54,14.54,0,0,1-4.582-1.057,77.562,77.562,0,0,1-8.77-4.617,25.683,25.683,0,0,0-8.095-3,12,12,0,0,0-5.812.359,9.057,9.057,0,0,0-1.422.644Z" transform="translate(-382.255 -366.829)"/></g><g transform="translate(0 8.429)"><path class="dd" d="M401.46,367.935c-4.611-3.717-12.779-.294-17.012,2.462-5.094,3.32-9.292,7.88-14.412,11.162-2.834,1.816-5.978,3.26-8.309,5.69-2.7,2.808-4.031,6.657-4.877,10.461a55.133,55.133,0,0,0,1.835,30.191c5.245,14.812,18.472-15.718,20.64-19.811,5.088-9.587,10.784-24.024,20.329-30.14,3.73-2.389,6.007-6.583,1.835-9.99Z" transform="translate(-355.554 -366.303)"/><path class="dd" d="M407,371.959c6.529-3.051,15.533.109,20.208,5.3a23.186,23.186,0,0,1,4.761,9.51c.852,3.116,1.354,6.34,2.6,9.321,1.063,2.539,2.638,4.832,3.836,7.313,4.819,9.974,3.023,22.062-1.678,32.093-1.14,2.437-2.629,4.973-5.123,5.988-6.516,2.651-6.2-6.734-7.294-10.5-1.755-6.02-3.365-12.078-5.088-18.1-2.786-9.734-5.274-23.72-12.763-31.171C401.19,376.461,403.614,373.541,407,371.959Z" transform="translate(-250.218 -356.482)"/><g transform="translate(48.639 6.575)"><g transform="translate(72.189 10.398)"><path class="c" d="M393.348,382.852c.4.5,2.209-1.39,5.383-3.3a19.414,19.414,0,0,1,12.827-2.933c4.985.8,9.013,3.958,11.492,6.769,2.526,2.811,3.749,5.174,4.265,4.822.231-.154.224-.954-.1-2.254a18.85,18.85,0,0,0-2.158-5,20.918,20.918,0,0,0-4.979-5.658,17.328,17.328,0,0,0-7.858-3.516,16.813,16.813,0,0,0-8.469.941,19.691,19.691,0,0,0-6.289,3.881,17.84,17.84,0,0,0-3.41,4.115C393.393,381.869,393.172,382.634,393.348,382.852Z" transform="translate(-393.29 -371.604)"/></g><path class="c" d="M370.887,378.568c.682.487,3-1.2,7.172-2.859a34.784,34.784,0,0,1,17.223-2.245,34.129,34.129,0,0,1,15.895,6.727c3.532,2.7,5.264,4.934,6.061,4.653.355-.125.387-.861-.029-2.091a15.224,15.224,0,0,0-2.975-4.793,26.111,26.111,0,0,0-7.06-5.613A32.222,32.222,0,0,0,396,368.636a32.64,32.64,0,0,0-11.815.6,26.992,26.992,0,0,0-8.412,3.516,15.8,15.8,0,0,0-4.249,3.817C370.762,377.64,370.579,378.354,370.887,378.568Z" transform="translate(-370.745 -368.357)"/></g><g transform="translate(35.741 32.846)"><path class="dd" d="M443.984,406.069c2.353,6.676,1.4,14.191-1.521,20.634s-7.666,11.911-12.885,16.717a7.554,7.554,0,0,1-3.97,2.315,7.067,7.067,0,0,1-3.4-.666c-12.824-5.082-20.918-17.451-28.168-29.1-2.261-3.634-4.592-7.477-4.784-11.739-.186-4.172,1.716-8.143,3.852-11.742,2.952-4.973,6.625-9.8,11.809-12.44C419.53,372.612,439.642,393.77,443.984,406.069Z" transform="translate(-317.107 -372.28)"/><path class="dd" d="M370.25,397.158c-3.589,6.039-4.252,13.586-2.85,20.489s4.713,13.237,8.61,19.017a7.288,7.288,0,0,0,3.241,3.087,6.525,6.525,0,0,0,3.324.054c13.07-2.315,23.217-12.731,32.423-22.616,2.872-3.087,5.853-6.362,6.916-10.49,1.037-4.041.077-8.316-1.178-12.276-1.735-5.475-4.178-10.957-8.485-14.614C400.1,369.506,376.868,386.031,370.25,397.158Z" transform="translate(-366.716 -376.562)"/></g><path class="de" d="M405.3,385.391a10.945,10.945,0,0,0-10.39,13.183c.381,1.835,1.438,3.733,3.237,4.259,1.96.57,3.974-.685,5.453-2.091s2.866-3.084,4.822-3.666c3.007-.9,10.24.948,9.276-4.64C416.927,387.947,409.13,385.276,405.3,385.391Z" transform="translate(-269.387 -324.28)"/><path class="de" d="M382.858,383.931a10.95,10.95,0,0,1,13.269,10.285c.07,1.873-.5,3.97-2.116,4.912-1.764,1.028-4.019.295-5.8-.708s-3.525-2.3-5.562-2.4c-3.138-.144-9.712,3.394-10.125-2.261C372.195,389.221,379.114,384.748,382.858,383.931Z" transform="translate(-318.204 -328.017)"/><g transform="translate(53.526 72.603)"><path class="dd" d="M454.45,435.746a14.585,14.585,0,0,1-2.8,8.162,14.313,14.313,0,0,1-6.862,4.3,42.393,42.393,0,0,1-11.876,1.668,129.75,129.75,0,0,1-50.341-8.6,19.943,19.943,0,0,1-6.286-3.42c-3.727-3.343-4.665-8.978-3.618-13.877,1.121-5.258,4.163-10.256,6.071-15.219,2.161-5.61,7.678-10.336,12.616-13.487,13.772-8.783,31.546-8.123,45.321.458,12.8,7.973,17.928,22.888,17.873,37.364C454.549,433.966,454.52,434.859,454.45,435.746Z" transform="translate(-372.271 -388.978)"/><g transform="translate(36.072 4.145)"><path class="de" d="M383.785,399.393a10.883,10.883,0,0,1,4.457-6.667,14.927,14.927,0,0,1,4.06-1.595l.083-.026a21.467,21.467,0,0,1,16.1,1.723l.077.042a14.912,14.912,0,0,1,3.631,2.421,10.846,10.846,0,0,1,2.946,7.454,5.66,5.66,0,0,1-1.944,4.918c-2.011,1.982-4.505,3.81-6.929,3.131a1.439,1.439,0,0,1-1.143-1.62,2.027,2.027,0,0,1,.477-.759,5.3,5.3,0,0,0,1.393-4.877,1.769,1.769,0,0,0-1.569-1.377c-1.1.006-1.62,1.13-2.008,2.177-.371,1-.7,2.024-.97,3.064a13.14,13.14,0,0,1-1.111,3.266,2.973,2.973,0,0,1-5.732-.612,13.267,13.267,0,0,1-.394-3.426c-.048-1.076-.147-2.145-.3-3.2-.16-1.1-.435-2.315-1.5-2.555a1.781,1.781,0,0,0-1.828,1.015,5.292,5.292,0,0,0,.333,5.059,2.132,2.132,0,0,1,.3.842c.042.823-.794,1.306-1.463,1.345-2.51.15-4.56-2.161-6.106-4.528a6.727,6.727,0,0,1-.906-1.767A6.81,6.81,0,0,1,383.785,399.393Z" transform="translate(-383.536 -390.272)"/></g><g transform="translate(17.608 15.925)"><path class="de" d="M396.728,396.9l-.029-.054a.844.844,0,0,1-.109,1.181c.064-.093.042-.074-.061.048a.814.814,0,0,1-.343.259,1.139,1.139,0,0,1-.557.09,1.079,1.079,0,1,1,1.1-1.524Z" transform="translate(-340.558 -388.82)"/><path class="de" d="M397.225,398.491c1.108.118.73,1.806-.365,1.691S396.13,398.373,397.225,398.491Z" transform="translate(-337.201 -383.967)"/><path class="de" d="M395.058,399.482a3.028,3.028,0,0,1,.311.33.758.758,0,0,1-.176,1.041.721.721,0,0,1-.2.131.947.947,0,1,1,.061-1.5Z" transform="translate(-343.125 -382.265)"/><path class="de" d="M393.809,397.857c1.047.112,1.05,1.771-.01,1.655S392.746,397.745,393.809,397.857Z" transform="translate(-344.207 -385.363)"/><path class="de" d="M380.253,394.156a.937.937,0,0,1,1.438.333c.051.135.1.269.147.407a.794.794,0,0,1-1.178.964c-.125-.074-.243-.15-.365-.23A.939.939,0,0,1,380.253,394.156Z" transform="translate(-373.042 -393.951)"/><path class="de" d="M379.722,396.719a.9.9,0,0,1,.961-.5l.154.032a.881.881,0,0,1-.064,1.742l-.157,0a.916.916,0,0,1-.973-.8A.978.978,0,0,1,379.722,396.719Z" transform="translate(-373.657 -388.983)"/><path class="de" d="M378.664,394.718a.906.906,0,0,1,.855,1.137c-.151.413-.423.8-.909.788a.894.894,0,0,1-.829-.807A.92.92,0,0,1,378.664,394.718Z" transform="translate(-377.77 -392.263)"/></g></g><g transform="translate(129.607 28.826)"><path class="dd" d="M396.1,379.856c.384.6,1.966.179,4.287-.026a16.727,16.727,0,0,1,15.366,6.234c1.524,1.764,2.369,3.164,3.058,3,.615-.118.98-1.976-.064-4.723a13.57,13.57,0,0,0-2.75-4.326,14.728,14.728,0,0,0-11.572-4.694,13.5,13.5,0,0,0-4.986,1.188C396.776,377.755,395.742,379.34,396.1,379.856Z" transform="translate(-396.032 -375.306)"/></g><g transform="translate(65.533 17.737)"><path class="dd" d="M376.1,375.938c.368.589,1.655.429,3.423.375a15.71,15.71,0,0,1,11.892,4.07c1.361,1.127,2.28,2.046,2.933,1.806.605-.208.826-1.713-.138-3.83A11.837,11.837,0,0,0,378.56,373C376.5,374.081,375.752,375.4,376.1,375.938Z" transform="translate(-376.021 -371.843)"/></g><path class="df" d="M403.9,413.54a25.215,25.215,0,0,1-6.5,5.014,10.752,10.752,0,0,1-8,.842c-4.409-1.466-6.721-6.215-8.29-10.592a1.536,1.536,0,0,1-.128-.848,1.552,1.552,0,0,1,.826-.861q5-2.987,10.173-5.693a21.487,21.487,0,0,1,6.2-2.427,7.8,7.8,0,0,1,6.324,1.393c1.281,1.076,4.451,5.44,4.447,7.23C408.947,410.014,405.524,411.919,403.9,413.54Z" transform="translate(-299.614 -294.681)"/><g transform="translate(63.799 100.89)"><path class="de" d="M376.948,397.825c-.243-.135-1.223.788-1.444,3.074a8.828,8.828,0,0,0,.679,4.035,11.089,11.089,0,0,0,3.272,4.416,12.938,12.938,0,0,0,6.164,2.625,19.145,19.145,0,0,0,7.435-.378c5.123-1.21,9.728-4.287,14.265-6.84a14.869,14.869,0,0,1,3.128-1.38,4.3,4.3,0,0,1,2.475-.067c1.415.349,2.728,2.059,4,3.986.644.961,1.313,1.979,2.107,2.955.387.49.874.964,1.31,1.415a15.236,15.236,0,0,0,1.45,1.169,15.026,15.026,0,0,0,6.077,2.514,13.746,13.746,0,0,0,9.017-1.377c1.88-1.089,2.536-2.133,2.35-2.36-.218-.3-1.242.173-3.055.6a14.651,14.651,0,0,1-7.537-.221,12.523,12.523,0,0,1-4.39-2.363,12.231,12.231,0,0,1-.964-.909c-.279-.359-.573-.666-.852-1.073-.56-.791-1.1-1.723-1.716-2.754a23.447,23.447,0,0,0-2.257-3.276,10.968,10.968,0,0,0-1.726-1.63,8.283,8.283,0,0,0-2.331-1.22,8.969,8.969,0,0,0-5.213-.074,18.692,18.692,0,0,0-4.236,1.8c-2.465,1.38-4.672,2.8-6.823,3.99a30.8,30.8,0,0,1-6.228,2.773,16.345,16.345,0,0,1-5.8.711,10.189,10.189,0,0,1-4.621-1.4,9.223,9.223,0,0,1-2.866-2.853,8.628,8.628,0,0,1-1.22-2.9C377.035,399.067,377.3,397.962,376.948,397.825Z" transform="translate(-375.479 -397.812)"/></g></g></g></g></svg>