<svg xmlns="http://www.w3.org/2000/svg" width="161.644" height="114.555" viewBox="0 0 161.644 114.555"><defs><style>.a{fill:#fff;}.b{fill:#333;font-size:41px;font-family:DimboRegular, Dimbo;}</style></defs><g transform="translate(-194.305 -322)"><g transform="translate(-119.051 -30.448)"><g transform="translate(313.356 352.448)"><path class="a" d="M472.363,450.836,318.327,465.773l-3.521-74.728,50.893-3.3L356.014,353.1l31.162,33.257,81.909-5.313Z" transform="translate(-312.762 -352.183)"/><path d="M471.7,380.758c-.021-.431-.661-.424-.833-.413l-67.97,4.374-12.831.826c-1.205.077-1.832-.538-1.034.307q-1.878-1.991-3.758-3.979l-27.623-29.25c-.479-.507-3.081.14-2.758,1.285l9.381,33.3-48.9,3.144c-.509.032-2.067.423-2.016,1.506q1.775,37.365,3.549,74.728c.021.427.662.428.834.413l144.636-13.917,10.341-.995c.842.079,2.328-.585,2.282-1.532Q473.347,415.656,471.7,380.758Zm-142.165,83.3-9.914.953a1.815,1.815,0,0,0,.082-.719q-.274-5.773-.548-11.545-1.441-30.307-2.878-60.611l49.212-3.164c.329-.021,2.286-.545,2.015-1.506q-4.036-14.329-8.072-28.658l24.634,26.084c2.077,2.2,2.655,2.713,5.141,2.552l14.866-.957,46.2-2.973,16.226-1.044,2.383-.154c0,.039-.008.063-.006.111l.165,3.489,3.049,64.426Z" transform="translate(-313.356 -352.448)"/></g></g><text class="b" transform="translate(280.837 408.978) rotate(-3)"><tspan x="-60.649" y="0">BWURP...</tspan></text></g></svg>