<svg xmlns="http://www.w3.org/2000/svg" width="48.359" height="38.687" viewBox="0 0 48.359 38.687"><defs><style>.a{fill:#fff;}</style></defs><g transform="translate(0 -47.104)"><g transform="translate(0 47.104)"><g transform="translate(0 0)"><path class="a" d="M42.577,53.832H37.53l-2.786-4.205A5.79,5.79,0,0,0,29.961,47.1H18.4a5.79,5.79,0,0,0-4.783,2.523l-2.786,4.205H5.782A5.765,5.765,0,0,0,0,59.614V80.009a5.765,5.765,0,0,0,5.782,5.782H42.577a5.765,5.765,0,0,0,5.782-5.782V59.614A5.765,5.765,0,0,0,42.577,53.832ZM24.179,81.06A13.01,13.01,0,1,1,37.215,68.077,13.034,13.034,0,0,1,24.179,81.06ZM41.841,61.979H39.528a1.71,1.71,0,0,1,0-3.417h2.1a1.706,1.706,0,0,1,1.787,1.629A1.664,1.664,0,0,1,41.841,61.979Z" transform="translate(0 -47.104)"/></g></g><g transform="translate(16.925 60.823)"><g transform="translate(0 0)"><path class="a" d="M172.118,180.736a7.228,7.228,0,1,0,7.254,7.2A7.268,7.268,0,0,0,172.118,180.736Z" transform="translate(-164.864 -180.736)"/></g></g></g></svg>