<svg xmlns="http://www.w3.org/2000/svg" width="220.551" height="302.316" viewBox="0 0 220.551 302.316"><defs><style>.a{fill:#e5b086;}.b{fill:#fbca9e;}.c{fill:#6d573c;}.d{fill:#4d3822;}.e{fill:#fff;}</style></defs><g transform="translate(0)"><path class="a" d="M245.123,305.786c-2.542-.562-4.86-2.953-6.886-4.509-2.109-1.615-4.174-3.292-6.136-5.086-4.454-4.077-8.451-9-10.237-14.858-1.159-3.8-2.345-10.7,1.544-13.476,1.044-.744,3.495-1.38,4.607-.274,1.368,1.365-.424,3.851-.818,5.469-.877,3.58,3.247,5.513,6.071,4.686,4.663-1.362,6.345-7.045,5.545-11.443s-4.28-7.769-8.375-9.275c-9.828-3.615-18.194,3.671-20.93,12.737-3.28,10.875,1.968,22.557,9.145,30.669a79.052,79.052,0,0,0,13.173,11.549c4.651,3.354,8.8,6.01,14.649,4.333C252.271,314.643,249.862,306.833,245.123,305.786Z" transform="translate(-208.509 -104.711)"/><g transform="translate(11.862 194.064)"><path class="b" d="M212.542,307.132c.088,15.649,7.5,31.961,18.782,42.389-8.672,3.206-22.021,14.238-10.466,21.844,3.5,2.3,8.034,3.03,12.411,3.392a95.135,95.135,0,0,0,54.682-11.943c-13.376-21.1-14.317-46.163-17.276-70.1a17.82,17.82,0,0,0-1.853-6.892,18.277,18.277,0,0,0-5.557-5.416c-9.76-6.828-24.054-14.458-35.014-6.272C217.117,282.451,212.475,294.58,212.542,307.132Z" transform="translate(-212.542 -270.59)"/><path class="b" d="M333.257,307.132c-.085,15.649-7.5,31.961-18.782,42.389,8.675,3.206,22.021,14.238,10.466,21.844-3.5,2.3-8.031,3.03-12.408,3.392a95.134,95.134,0,0,1-54.682-11.943c13.376-21.1,14.314-46.163,17.276-70.1a17.774,17.774,0,0,1,1.853-6.892,18.243,18.243,0,0,1,5.557-5.416c9.757-6.828,24.054-14.458,35.014-6.272C328.682,282.451,333.327,294.58,333.257,307.132Z" transform="translate(-124.568 -270.59)"/></g><path class="b" d="M392.11,341.836c-.277-1.15-.547-2.277-.8-3.374-4.283-18.609-6.854-37.794-10.26-56.585-1.115-6.148-4.045-13.814-9.828-16.182,5.189-5.492,4.068-15.591-2.2-19.812-18.688,8.863-39.818,11.408-60.612,11.419-.671.009-1.341.006-2.012.012s-1.344,0-2.015.012c-20.794-.035-41.924-2.58-60.612-11.443-6.272,4.221-7.392,14.32-2.2,19.812-5.783,2.368-8.713,10.034-9.828,16.182q-5.436,30-10.875,60c-3.777,20.836-10.849,46.172,11.016,59.041,8.734,5.142,18.994,6.942,29.051,8.181,23.921,2.948,48.081,3.23,72.182,3.509,13.214.153,26.751.256,39.206-4.165,10.26-3.639,19.833-10.893,23.421-21.171C400.464,373.738,395.516,355.891,392.11,341.836Z" transform="translate(-192.613 -124.497)"/><g transform="translate(52.548 193.103)"><path class="b" d="M241.293,369.664c.885,2.2,1.883,4.477,3.736,5.957A13.4,13.4,0,0,0,251,377.877a91.454,91.454,0,0,0,13.243,1.541c4.674.2,9.6-.024,13.614-2.436,5.539-3.336,8.1-10.481,7.01-16.853s-5.348-11.893-10.622-15.632a12.908,12.908,0,0,1-3.771-3.324,10.472,10.472,0,0,1-1.2-3.709,190.771,190.771,0,0,1-2.38-53.214,9,9,0,0,0-.277-4.342,8.189,8.189,0,0,0-3.4-3.418c-5.633-3.618-12.117-6.2-18.809-6.227-22.718-.109-17.976,23.7-16.853,39.653A197.084,197.084,0,0,0,241.293,369.664Z" transform="translate(-226.373 -270.263)"/><path class="b" d="M291.91,369.664c-.885,2.2-1.883,4.477-3.736,5.957a13.409,13.409,0,0,1-5.969,2.256,91.454,91.454,0,0,1-13.243,1.541c-4.674.2-9.607-.024-13.614-2.436-5.539-3.336-8.1-10.481-7.01-16.853s5.345-11.893,10.622-15.632a12.907,12.907,0,0,0,3.771-3.324,10.527,10.527,0,0,0,1.2-3.709,191,191,0,0,0,2.38-53.214,9,9,0,0,1,.277-4.342,8.189,8.189,0,0,1,3.4-3.418c5.63-3.618,12.114-6.2,18.809-6.227,22.718-.109,17.973,23.7,16.853,39.653A197.172,197.172,0,0,1,291.91,369.664Z" transform="translate(-184.203 -270.263)"/></g><path class="a" d="M251.449,343.363a6.553,6.553,0,0,1-3.068-2,5.817,5.817,0,0,1-.724-2.68c-2.333-23.062-2.974-46.9-12.361-68.09,7.822,10.184,10.39,23.33,12.731,35.955q2.612,14.089,5.224,28.175a7.388,7.388,0,0,0,1.539,3.892,9.427,9.427,0,0,0,2.809,1.677c5.58,2.721,13.014,17.644,10.184,23.836C264.525,351.72,258.421,346.4,251.449,343.363Z" transform="translate(-156.498 -76.525)"/><path class="a" d="M264.888,343.363a6.544,6.544,0,0,0,3.065-2,5.816,5.816,0,0,0,.724-2.68c2.333-23.062,2.974-46.9,12.361-68.09-7.822,10.184-10.387,23.33-12.728,35.955q-2.612,14.089-5.224,28.175a7.366,7.366,0,0,1-1.541,3.892,9.411,9.411,0,0,1-2.806,1.677c-5.58,2.721-13.017,17.644-10.184,23.836C251.812,351.72,257.916,346.4,264.888,343.363Z" transform="translate(-131.968 -76.525)"/><g transform="translate(46.795 185.967)"><path class="a" d="M226.923,267.837s.109,1.515.306,4.251c.079,1.362.185,3.03.359,4.962s.282,4.121.541,6.539q.163,1.814.341,3.792c.118,1.315.3,2.683.438,4.1.265,2.83.677,5.839,1.041,9,.829,6.322,1.833,13.237,3.033,20.471,1.241,7.228,2.565,14.087,3.856,20.333.694,3.109,1.294,6.086,1.974,8.845.329,1.383.609,2.733.932,4.012l.921,3.695c.55,2.368,1.156,4.477,1.636,6.357s.918,3.489,1.291,4.8l1.106,4.112s-.729-1.33-2.047-3.739c-.659-1.206-1.441-2.7-2.274-4.462s-1.836-3.757-2.783-6.027c-.48-1.132-.986-2.321-1.512-3.556s-.994-2.553-1.512-3.906c-1.059-2.7-2.018-5.645-3.024-8.751a154.849,154.849,0,0,1-7.051-41.754c-.068-3.265-.129-6.36-.018-9.257.047-1.45.065-2.844.147-4.189s.176-2.627.262-3.857c.147-2.453.432-4.668.647-6.607s.459-3.6.682-4.96C226.673,269.337,226.923,267.837,226.923,267.837Z" transform="translate(-224.417 -267.837)"/></g><g transform="translate(160.256 187.929)"><path class="a" d="M283.55,268.5s.271,1.494.759,4.2q.172,1.019.382,2.259.154,1.249.335,2.7c.226,1.942.515,4.159.641,6.622q.115,1.849.238,3.868c.056,1.344.062,2.748.088,4.2.085,2.909-.065,6.007-.185,9.278a154.785,154.785,0,0,1-2.715,21.089,160.652,160.652,0,0,1-5.719,20.459c-1.135,3.062-2.2,5.972-3.371,8.628-.571,1.333-1.109,2.624-1.668,3.848l-1.659,3.495c-1.038,2.23-2.109,4.189-3.027,5.91l-1.3,2.392q-.635,1.085-1.162,1.977c-1.418,2.35-2.2,3.65-2.2,3.65s.456-1.447,1.28-4.065q.318-.975.706-2.159.362-1.2.785-2.589c.559-1.853,1.244-3.942,1.895-6.286.341-1.162.7-2.383,1.074-3.651q.525-1.915,1.088-3.974c.794-2.73,1.5-5.686,2.324-8.763,1.53-6.189,3.115-12.993,4.6-20.168,1.444-7.183,2.645-14.055,3.624-20.347.418-3.15.912-6.145,1.2-8.966l.494-4.083q.19-1.972.365-3.78c.276-2.412.394-4.6.55-6.531q.115-1.452.212-2.694c.041-.827.076-1.586.109-2.265C283.459,270.019,283.55,268.5,283.55,268.5Z" transform="translate(-262.988 -268.504)"/></g><g transform="translate(47.901 124.728)"><path class="a" d="M358.622,252.526l-1.041,1.05c-.344.341-.774.768-1.277,1.271-.256.25-.524.527-.824.806s-.647.55-1,.85a64.726,64.726,0,0,1-13.09,8.8,97.189,97.189,0,0,1-22.062,8.075,127.875,127.875,0,0,1-28.566,3.462,81.983,81.983,0,0,1-28.581-5.454c-1.035-.4-2.062-.8-3.071-1.185l-2.933-1.286q-.724-.318-1.433-.632c-.462-.229-.924-.456-1.38-.682l-2.689-1.339c-1.73-.941-3.4-1.841-4.968-2.774-1.544-.971-3.065-1.827-4.433-2.786a96.421,96.421,0,0,1-12.387-9.669c-1.388-1.218-2.356-2.288-3.056-2.959l-1.038-1.05,1.221.838c.809.533,1.936,1.406,3.5,2.371a126.282,126.282,0,0,0,13.387,7.66c1.43.762,3,1.418,4.589,2.183,1.606.73,3.306,1.424,5.048,2.162q1.324.512,2.7,1.035l1.377.533c.468.162.941.321,1.418.485q1.425.49,2.892,1l3,.909a95.121,95.121,0,0,0,26.8,4.159,177.678,177.678,0,0,0,27.507-2.339,119.2,119.2,0,0,0,21.845-5.677,75.718,75.718,0,0,0,13.811-6.651l1.115-.662.935-.644c.58-.4,1.071-.741,1.468-1.015Z" transform="translate(-224.793 -247.019)"/></g><g transform="translate(19.248)"><path class="b" d="M379.714,273.69s1.212-4.562,0-20.009S361,215.773,335.048,208.048c-9.051-2.692-20.156-3.506-30.787-3.424-10.628-.082-21.733.732-30.784,3.424-25.957,7.725-43.454,30.19-44.666,45.634s0,20.009,0,20.009-9.663,29.134-8.457,35.453,13.281,40.018,83.907,40.018,82.7-33.7,83.91-40.018S379.714,273.69,379.714,273.69Z" transform="translate(-204.962 -204.618)"/><g transform="translate(73.489 10.286)"><path class="a" d="M289.834,210.234l-.506-.191a9.773,9.773,0,0,0-1.45-.441,12.562,12.562,0,0,0-5.4.147,30.586,30.586,0,0,0-7.463,3,46.494,46.494,0,0,1-9.593,4.339,15.709,15.709,0,0,1-5.819.527,14.607,14.607,0,0,1-5.165-1.668c-2.942-1.574-5.1-3.312-7.181-4.262a11.355,11.355,0,0,0-5.21-1.306,7.472,7.472,0,0,0-1.5.188l-.518.141.471-.271a6.794,6.794,0,0,1,1.474-.559,11.135,11.135,0,0,1,5.854.288c2.439.659,5.007,2.165,7.76,3.3a13.379,13.379,0,0,0,4.295,1.059,14.671,14.671,0,0,0,4.695-.565,78.4,78.4,0,0,0,9.266-3.68,25.855,25.855,0,0,1,8.419-2.136,12.053,12.053,0,0,1,5.771.98,9.141,9.141,0,0,1,1.356.8Z" transform="translate(-240.035 -208.115)"/></g><g transform="translate(0 17.349)"><g transform="translate(0 0.303)"><path class="c" d="M271.054,211.761c5.007-3.224,12.811,1.074,16.75,4.286,4.742,3.862,8.451,8.875,13.22,12.7,2.642,2.118,5.63,3.9,7.7,6.577,2.4,3.1,3.318,7.089,3.759,10.984a55.513,55.513,0,0,1-5.065,30c-6.831,14.252-16.794-17.7-18.527-22.024-4.062-10.134-8.216-25.183-17.109-32.32-3.477-2.792-5.3-7.228-.768-10.19Z" transform="translate(-111.625 -210.619)"/><path class="c" d="M256.828,211.761c-5.01-3.224-12.811,1.074-16.753,4.286-4.742,3.862-8.448,8.875-13.22,12.7-2.641,2.118-5.63,3.9-7.7,6.577-2.4,3.1-3.321,7.089-3.759,10.984a55.459,55.459,0,0,0,5.066,30c6.83,14.252,16.794-17.7,18.526-22.024,4.062-10.134,8.213-25.183,17.106-32.32,3.477-2.792,5.307-7.228.768-10.19Z" transform="translate(-215.053 -210.619)"/></g><g transform="translate(42.759)"><g transform="translate(0 3.251)"><path class="a" d="M274.306,224.72c-.585.456-2.656-1.624-6.489-3.874a28.353,28.353,0,0,0-31.92,1.232c-3.645,2.542-5.548,4.774-6.169,4.365-.274-.177-.156-.977.438-2.244a18.3,18.3,0,0,1,3.48-4.76,25.562,25.562,0,0,1,7.207-5.127,26.514,26.514,0,0,1,21.424-.83,25.638,25.638,0,0,1,7.581,4.554,18.3,18.3,0,0,1,3.836,4.48C274.385,223.735,274.568,224.523,274.306,224.72Z" transform="translate(-229.588 -211.621)"/></g><g transform="translate(68.749)"><path class="a" d="M292.241,223.148c-.612.412-2.386-1.527-5.71-3.627a23.683,23.683,0,0,0-27.937.938c-3.177,2.321-4.815,4.374-5.454,4-.285-.165-.247-.9.209-2.086a15.339,15.339,0,0,1,2.9-4.477,21.841,21.841,0,0,1,6.369-4.857,22.569,22.569,0,0,1,19.4-.653,21.862,21.862,0,0,1,6.68,4.418,15.325,15.325,0,0,1,3.195,4.271C292.426,222.23,292.514,222.965,292.241,223.148Z" transform="translate(-252.959 -210.516)"/></g></g><g transform="translate(57.959 64.933)"><path class="c" d="M234.765,275.206a14.666,14.666,0,0,0,1.921,8.463,14.43,14.43,0,0,0,6.4,5.033,42.767,42.767,0,0,0,11.7,2.939,130.545,130.545,0,0,0,51.273-3.221,19.977,19.977,0,0,0,6.651-2.747c4.089-2.945,5.627-8.481,5.107-13.493-.562-5.377-3.068-10.7-4.448-15.87-1.559-5.842-6.575-11.161-11.172-14.84-12.834-10.257-30.684-11.5-45.378-4.392-13.658,6.6-20.383,20.974-21.877,35.458C234.854,273.415,234.789,274.309,234.765,275.206Z" transform="translate(-234.756 -232.59)"/><g transform="translate(25.406 3.013)"><path class="d" d="M275.185,244.416a10.92,10.92,0,0,0-3.742-7.142,15.043,15.043,0,0,0-3.892-2.033l-.082-.032a21.572,21.572,0,0,0-16.282,0l-.082.032a15.048,15.048,0,0,0-3.892,2.033,10.92,10.92,0,0,0-3.742,7.142,6.892,6.892,0,0,0,.321,3.454,7.015,7.015,0,0,0,1.1,1.674c1.8,2.2,4.1,4.289,6.592,3.874.665-.112,1.45-.682,1.318-1.5a2.056,2.056,0,0,0-.394-.809,5.321,5.321,0,0,1-.871-5.024,1.785,1.785,0,0,1,1.718-1.212c1.091.126,1.5,1.306,1.774,2.394.265,1.038.479,2.1.644,3.168a13.264,13.264,0,0,0,.759,3.386,2.99,2.99,0,0,0,5.8,0,13.261,13.261,0,0,0,.759-3.386c.165-1.071.38-2.13.644-3.168.277-1.088.682-2.268,1.774-2.394a1.786,1.786,0,0,1,1.718,1.209,5.325,5.325,0,0,1-.871,5.027,2.059,2.059,0,0,0-.394.809c-.132.821.653,1.391,1.318,1.5,2.494.415,4.792-1.677,6.592-3.874a7.008,7.008,0,0,0,1.1-1.674A6.893,6.893,0,0,0,275.185,244.416Z" transform="translate(-243.392 -233.614)"/></g><g transform="translate(8.926 26.975)"><path class="d" d="M301.552,242.073c.123-.1.435,0,.868.415a4.573,4.573,0,0,1,1.15,2.336,7.339,7.339,0,0,1-.456,4.145,8.183,8.183,0,0,1-1.386,2.3,8.387,8.387,0,0,1-2.4,1.936,12.078,12.078,0,0,1-6.583,1.318,19.726,19.726,0,0,1-7.072-1.956c-4.5-2.089-8.566-5.218-13.037-5.807a9.3,9.3,0,0,0-6.039,1.227c-1.95,1.047-3.833,2.556-5.857,3.912a21.775,21.775,0,0,1-12.664,4.195,13.336,13.336,0,0,1-8.492-3.151c-1.6-1.468-1.971-2.65-1.73-2.83.282-.235,1.147.468,2.8,1.247a14.032,14.032,0,0,0,7.319,1.262,20.244,20.244,0,0,0,10.146-4.413,60.371,60.371,0,0,1,6.133-4.424,15.063,15.063,0,0,1,4.221-1.7,13.367,13.367,0,0,1,4.807-.191,23.275,23.275,0,0,1,8.157,2.977c2.315,1.3,4.313,2.63,6.233,3.639a17.151,17.151,0,0,0,5.48,1.965,9.136,9.136,0,0,0,4.662-.4,5.514,5.514,0,0,0,1.659-.974,6.065,6.065,0,0,0,1.179-1.353,6.4,6.4,0,0,0,1.006-2.792C301.838,243.285,301.246,242.3,301.552,242.073Z" transform="translate(-237.79 -241.76)"/></g></g><g transform="translate(34.623 26.121)"><path class="c" d="M229.16,243.586c-3.071,6.422-2.918,14.043-.688,20.8s6.392,12.734,11.1,18.1a7.623,7.623,0,0,0,3.724,2.742,7.091,7.091,0,0,0,3.468-.3c13.373-3.712,22.789-15.217,31.287-26.089,2.65-3.392,5.392-6.989,6.039-11.231.632-4.153-.844-8.325-2.594-12.152-2.421-5.292-5.58-10.513-10.481-13.708C257.2,212.734,234.816,231.746,229.16,243.586Z" transform="translate(-226.823 -219.396)"/><path class="c" d="M304.907,243.586c2.945,6.422,2.8,14.043.662,20.8s-6.133,12.734-10.649,18.1a7.326,7.326,0,0,1-3.571,2.742,6.539,6.539,0,0,1-3.327-.3c-12.826-3.712-21.862-15.217-30.01-26.089-2.545-3.392-5.177-6.989-5.8-11.231-.609-4.153.812-8.325,2.489-12.152,2.321-5.292,5.351-10.513,10.052-13.708C278.012,212.734,299.483,231.746,304.907,243.586Z" transform="translate(-177.795 -219.396)"/><g transform="translate(90.51 19.165)"><path class="d" d="M278.9,246.026a6.223,6.223,0,0,1-2.512,2.295c-2.591,1.132-5.8-.271-8.039-1.774a43.633,43.633,0,0,1-7.986-6.822c-1.418-1.553-2.721-3.289-2.768-5.177-.156-5.98,9.093-11.146,15.77-7.328C281.309,231.762,283.494,239.617,278.9,246.026Z" transform="translate(-257.591 -225.911)"/><path class="e" d="M265.852,228.9a1.824,1.824,0,0,1,.268.959,2.641,2.641,0,0,1-1.527,1.862,12.848,12.848,0,0,1-2.836,1.186,2.562,2.562,0,0,1-1.718.038c-1.58-.75-1.706-3.848.174-5.086C262.445,226.388,264.784,226.856,265.852,228.9Z" transform="translate(-255.189 -223.793)"/></g><g transform="translate(13.397 19.165)"><path class="d" d="M233.751,246.026a6.252,6.252,0,0,0,2.515,2.295c2.592,1.132,5.8-.271,8.04-1.774a43.638,43.638,0,0,0,7.986-6.822c1.418-1.553,2.721-3.289,2.768-5.177.156-5.98-9.092-11.146-15.77-7.328C231.345,231.762,229.159,239.617,233.751,246.026Z" transform="translate(-231.377 -225.911)"/><path class="e" d="M233.426,234.841a2.166,2.166,0,0,0,.877.8,3.164,3.164,0,0,0,2.8-.618,15.307,15.307,0,0,0,2.78-2.377,3.014,3.014,0,0,0,.965-1.8c.053-2.083-3.168-3.88-5.492-2.553C232.588,229.873,231.826,232.608,233.426,234.841Z" transform="translate(-229.004 -222.174)"/></g></g><g transform="translate(46.33 13.3)"><g transform="translate(0 5.379)"><path class="c" d="M246.545,217.955c.218,1.38-3.421,2.965-7.366,5.06-1.762.968-3.386,1.859-5.089,2.8-1.365.724-2.421,1.147-2.974.732-.529-.394-.415-1.636.544-3.209a13.633,13.633,0,0,1,5.221-4.659,15.115,15.115,0,0,1,6.633-1.809C245.3,216.851,246.427,217.3,246.545,217.955Z" transform="translate(-230.802 -216.866)"/></g><g transform="translate(81.368)"><path class="c" d="M275.154,222.7c-.882,1.082-4.489-.571-8.684-2.112-1.895-.668-3.642-1.283-5.477-1.927-1.447-.535-2.471-1.035-2.527-1.727-.062-.656.938-1.4,2.754-1.736a13.63,13.63,0,0,1,6.951.782,15.077,15.077,0,0,1,5.774,3.739C275.145,221.041,275.566,222.179,275.154,222.7Z" transform="translate(-258.463 -215.037)"/></g><path class="d" d="M239.61,239.923l.032-.053a.853.853,0,0,0-.018,1.194c-.053-.1-.032-.079.056.056a.8.8,0,0,0,.315.294,1.125,1.125,0,0,0,.547.15,1.086,1.086,0,1,0-.932-1.641Z" transform="translate(-214.13 -167.742)"/><path class="d" d="M238.414,241.625c-1.121,0-.924,1.73.185,1.73S239.52,241.625,238.414,241.625Z" transform="translate(-217.479 -163.413)"/><path class="d" d="M240.924,242.947a3.007,3.007,0,0,0-.347.294.768.768,0,0,0,.065,1.062.92.92,0,0,0,.182.153.952.952,0,1,0,.1-1.509Z" transform="translate(-212.185 -161.173)"/><path class="d" d="M242.123,241.314c-1.059,0-1.241,1.656-.168,1.656S243.2,241.314,242.123,241.314Z" transform="translate(-210.548 -164.017)"/><path class="d" d="M257.552,238.856a.944.944,0,0,0-1.471.18c-.068.129-.132.259-.191.391a.8.8,0,0,0,1.074,1.091c.132-.059.262-.127.391-.191A.947.947,0,0,0,257.552,238.856Z" transform="translate(-182.265 -169.317)"/><path class="d" d="M257.755,241.68a.9.9,0,0,0-.906-.6l-.159.015a.887.887,0,0,0-.818.824.875.875,0,0,0,.7.927l.156.012a.92.92,0,0,0,1.062-.7A1,1,0,0,0,257.755,241.68Z" transform="translate(-182.127 -164.483)"/><path class="d" d="M259.122,239.675a.908.908,0,0,0-.977,1.044c.1.43.335.844.824.885a.9.9,0,0,0,.915-.721A.922.922,0,0,0,259.122,239.675Z" transform="translate(-177.755 -167.206)"/></g></g></g><g transform="translate(50.104 142.907)"><path class="a" d="M272.544,274.7l-2.092.08c-.677.026-1.5.038-2.462-.006s-2.059-.05-3.265-.188c-1.206-.106-2.533-.241-3.942-.491-1.421-.2-2.909-.544-4.483-.9a55.327,55.327,0,0,1-18.994-8.687c-1.3-.959-2.533-1.859-3.612-2.806-1.109-.9-2.077-1.815-2.951-2.659-.891-.821-1.618-1.647-2.274-2.347s-1.194-1.33-1.615-1.859l-1.312-1.633s.594.45,1.662,1.268c.524.415,1.171.915,1.95,1.462s1.618,1.209,2.618,1.856c.98.671,2.044,1.4,3.233,2.124,1.153.768,2.447,1.491,3.777,2.289,2.7,1.53,5.719,3.106,8.957,4.607,3.25,1.471,6.413,2.718,9.34,3.762,1.471.485,2.865.991,4.2,1.362,1.324.427,2.574.756,3.721,1.056,1.144.332,2.2.541,3.118.768s1.721.394,2.38.518C271.814,274.546,272.544,274.7,272.544,274.7Z" transform="translate(-225.542 -253.199)"/></g><g transform="translate(147.784 143.598)"><path class="a" d="M258.748,272.255l4.165-2.621c2.545-1.609,5.948-3.877,9.637-6.433s7-4.957,9.4-6.78l3.912-2.986-.685,1.147a34.543,34.543,0,0,1-2.083,2.989,38.823,38.823,0,0,1-19.5,13.537,34,34,0,0,1-3.527.9Z" transform="translate(-258.748 -253.434)"/></g><path class="a" d="M253.548,341.764c-10.007-5.43-17.5-14.723-22.6-24.9s-8.028-21.288-10.734-32.346c5.433,12.1,11.79,25.172,23.827,30.743C247.43,325.006,248.333,332.86,253.548,341.764Z" transform="translate(-185.789 -49.484)"/><path class="a" d="M262.959,349.7c18.371,2.044,30.6-19.859,33.24-34.917,1.977-11.281.753-22.918-1.856-34.067-.041,14.429-1.933,29.457-9.846,41.524-2.609,3.983-6.354,7.831-11.108,8.14a3.066,3.066,0,0,0-1.83.447,2.68,2.68,0,0,0-.709,1.418A70.57,70.57,0,0,1,262.959,349.7Z" transform="translate(-102.788 -56.87)"/></g></svg>