<svg xmlns="http://www.w3.org/2000/svg" xmlns:xlink="http://www.w3.org/1999/xlink" width="205.491" height="109.968" viewBox="0 0 205.491 109.968"><defs><style>.a,.b{fill:none;}.b{stroke:#c92c28;stroke-miterlimit:10;stroke-width:17.62px;}.c{fill:#0d0e10;}.d{clip-path:url(#a);}.e{fill:#ffb547;}.f{fill:#ffb548;}.g{fill:#ffb649;}.h{fill:#ffb64a;}.i{fill:#ffb74b;}.j{fill:#ffb74c;}.k{fill:#ffb74d;}.l{fill:#ffb84e;}.m{fill:#ffb84f;}.n{fill:#ffb950;}.o{fill:#ffb951;}.p{fill:#ffb952;}.q{fill:#ffba53;}.r{fill:#ffba54;}.s{fill:#fb5;}.t{fill:#ffbb56;}.u{fill:#ffbb57;}.v{fill:#ffbc58;}.w{fill:#ffbc59;}.x{fill:#ffbd5a;}.y{fill:#ffbd5b;}.z{fill:#ffbd5c;}.aa{fill:#ffbe5d;}.ab{fill:#ffbe5e;}.ac{fill:#ffbf5f;}.ad{fill:#ffbf60;}.ae{fill:#ffc061;}.af{fill:#ffc062;}.ag{fill:#ffc063;}.ah{fill:#ffc164;}.ai{fill:#ffc165;}.aj{fill:#ffc266;}.ak{fill:#ffc267;}.al{fill:#ffc268;}.am{fill:#ffc369;}.an{fill:#ffc36a;}.ao{fill:#ffc46b;}.ap{fill:#ffc46c;}.aq{fill:#ffc46d;}.ar{fill:#ffc56e;}.as{fill:#ffc56f;}.at{fill:#ffc670;}.au{fill:#ffc671;}.av{fill:#ffc672;}.aw{fill:#ffc773;}.ax{fill:#ffc774;}.ay{fill:#ffc875;}.az{fill:#ffc877;}.ba{fill:#ffc878;}.bb{fill:#ffc979;}.bc{fill:#ffc97a;}.bd{fill:#ffca7b;}.be{fill:#ffca7c;}.bf{fill:#ffca7d;}.bg{fill:#ffcb7e;}.bh{fill:#ffcb7f;}.bi{fill:#ffcc80;}.bj{fill:#ffcc81;}.bk{fill:#ffcc82;}.bl{fill:#ffcd83;}.bm{fill:#ffcd84;}.bn{fill:#ffce85;}.bo{fill:#ffce86;}.bp{fill:#ffce87;}.bq{fill:#ffcf88;}.br{fill:#ffcf89;}.bs{fill:#ffd08a;}.bt{fill:#ffd08b;}.bu{fill:#ffd08c;}.bv{fill:#ffd18d;}.bw{fill:#ffd18e;}.bx{fill:#ffd28f;}.by{fill:#ffd290;}.bz{fill:#ffd391;}.ca{fill:#ffd392;}.cb{fill:#ffd393;}.cc{fill:#ffd494;}.cd{fill:#ffd495;}.ce{fill:#ffd596;}.cf{fill:#ffd597;}.cg{fill:#ffd598;}.ch{fill:#ffd699;}.ci{fill:#ffd69a;}.cj{fill:#ffd79b;}.ck{fill:#ffd79c;}.cl{fill:#ffd79d;}.cm{fill:#ffd89e;}.cn{fill:#ffd89f;}.co{fill:#ffd9a0;}.cp{fill:#ffd9a1;}.cq{fill:#ffd9a2;}.cr{fill:#ffdaa3;}.cs{fill:#ffdaa4;}.ct{fill:#ffdba5;}.cu{fill:#ffdba6;}.cv{fill:#ed352b;}.cw{fill:#f9633a;}.cx{mix-blend-mode:overlay;isolation:isolate;fill:url(#b);}.cy{fill:#c92c28;}.cz{fill:#bab7f7;}.da{fill:#fff;}</style><clipPath id="a"><path class="a" d="M677.232,548.66c2.591-13.939,2.283-31.043,4.18-35.224s16.417-16.244,69.739-16.244,69.115,11.5,70,16.244,1.932,27.183,0,35.224-29.874,13.672-44.184,14.744-54.325-4.021-57.1-4.557S677.232,548.66,677.232,548.66Z" transform="translate(-677.232 -497.192)"/></clipPath><linearGradient id="b" x1="1.425" y1="-0.951" x2="-0.537" y2="2.232" gradientUnits="objectBoundingBox"><stop offset="0" stop-color="#fff"/><stop offset="1" stop-color="gray"/></linearGradient></defs><g transform="translate(-626.333 -488.768)"><g transform="translate(635.172 488.768)"><g transform="translate(0 48.83)"><path class="b" d="M644.663,625.246c-22.779-12.968-3.09-29.051,43.366-35.31s102.582-.822,125.361,12.146,3.586,28.555-42.87,34.815S667.443,638.214,644.663,625.246Z" transform="translate(-635.172 -587.338)"/></g><g transform="translate(167.068 20.742)"><path class="c" d="M972.458,530.711l-.035-.072c.017.039.034.078.05.117Z" transform="translate(-972.423 -530.639)"/></g><g transform="translate(20.836 4.173)"><g class="d"><rect class="e" width="145.849" height="67.284" transform="translate(0 0)"/><path class="e" d="M752.5,564.466H676.232V496.192H823.072v68.275Z" transform="translate(-676.727 -496.687)"/><path class="f" d="M752.5,564.466H676.232V496.192H823.072v68.275Z" transform="translate(-676.727 -496.687)"/><path class="g" d="M752.5,564.466H676.232V496.192H823.072v68.275Z" transform="translate(-676.727 -496.687)"/><path class="h" d="M752.5,564.466H676.232V496.192H823.072v68.275Z" transform="translate(-676.727 -496.687)"/><path class="i" d="M752.5,564.466H676.232V496.192H823.072v68.275Z" transform="translate(-676.727 -496.687)"/><path class="j" d="M752.5,564.466H676.232V496.192H823.072v68.275Z" transform="translate(-676.727 -496.687)"/><path class="k" d="M752.5,564.466H676.232V496.192H823.072v68.275Z" transform="translate(-676.727 -496.687)"/><path class="l" d="M752.5,564.466H676.232V496.192H823.072v68.275Z" transform="translate(-676.727 -496.687)"/><path class="m" d="M752.5,564.466H676.232V496.192H823.072v68.275Z" transform="translate(-676.727 -496.687)"/><path class="n" d="M752.5,564.466H676.232V496.192H823.072v68.275Z" transform="translate(-676.727 -496.687)"/><path class="o" d="M752.5,564.466H676.232V496.192H823.072v68.275Z" transform="translate(-676.727 -496.687)"/><path class="p" d="M752.5,564.466H676.232V496.192H823.072v68.275Z" transform="translate(-676.727 -496.687)"/><path class="q" d="M752.5,564.466H676.232V496.192H823.072v68.275Z" transform="translate(-676.727 -496.687)"/><path class="r" d="M752.5,564.466H676.232V496.192H823.072v68.275Z" transform="translate(-676.727 -496.687)"/><path class="s" d="M752.5,564.466H676.232V496.192H823.072v68.275Z" transform="translate(-676.727 -496.687)"/><path class="t" d="M752.5,564.466H676.232V496.192H823.072v68.275Z" transform="translate(-676.727 -496.687)"/><path class="u" d="M752.5,564.466H676.232V496.192H823.072v68.275Z" transform="translate(-676.727 -496.687)"/><path class="v" d="M752.2,564.466H679.79v.175q-2.087-.5-4.147-1.027h.292V496.192h146.84v68.275Z" transform="translate(-676.43 -496.687)"/><path class="w" d="M749.086,564.466H694.475v2.427q-8.626-1.519-16.873-3.5-4.12-.986-8.135-2.082h3.351V496.192h146.84V563.4h.913q-8.239,1.973-16.873,3.5v-2.427Z" transform="translate(-673.314 -496.687)"/><path class="x" d="M750.139,564.466h-53.9V565.6q-8.514-1.5-16.654-3.45-4.066-.974-8.03-2.055h2.317V496.192h146.84V561.66h2.011q-1.011.25-2.027.494-8.132,1.947-16.654,3.45v-1.137Z" transform="translate(-674.367 -496.687)"/><path class="y" d="M751.193,564.466h-36.05v2.343a285.4,285.4,0,0,1-33.577-5.9q-4.013-.961-7.924-2.028h1.283v-62.69h146.84v63.73h3.043q-1.981.507-3.987.987a285.422,285.422,0,0,1-33.577,5.9v-2.343Z" transform="translate(-675.42 -496.687)"/><path class="z" d="M752.246,567.517a296.308,296.308,0,0,1-68.7-7.852q-3.959-.948-7.818-2h.249V496.192h146.84v62.5h2.062q-1.955.5-3.934.974A296.315,296.315,0,0,1,752.246,567.517Z" transform="translate(-676.474 -496.687)"/><path class="aa" d="M749.449,566.167a292.307,292.307,0,0,1-67.771-7.745q-3.906-.936-7.713-1.974-1.9-.519-3.78-1.064h3V496.192h146.84V557.46h1.08q-1.928.493-3.881.962A292.314,292.314,0,0,1,749.449,566.167Z" transform="translate(-673.676 -496.687)"/><path class="ab" d="M750.555,564.817a288.279,288.279,0,0,1-66.842-7.64q-3.852-.922-7.607-1.947-1.877-.512-3.728-1.049h1.909V496.192h146.84v60.037h.1q-1.9.487-3.828.948A288.282,288.282,0,0,1,750.555,564.817Z" transform="translate(-674.783 -496.687)"/><path class="ac" d="M751.661,563.466a284.3,284.3,0,0,1-65.914-7.533q-3.8-.91-7.5-1.92-1.851-.5-3.676-1.034h.823V496.192h146.84v57.821h2.843q-3.7,1.01-7.5,1.92A284.308,284.308,0,0,1,751.661,563.466Z" transform="translate(-675.889 -496.687)"/><path class="ad" d="M749.127,562.116a280.269,280.269,0,0,1-64.986-7.428q-7.49-1.793-14.594-3.98h3.312V496.192H819.7v56.6h1.809q-3.649.995-7.4,1.892A280.268,280.268,0,0,1,749.127,562.116Z" transform="translate(-673.354 -496.687)"/><path class="ae" d="M750.285,560.766a276.273,276.273,0,0,1-64.057-7.321q-7.383-1.768-14.385-3.923h2.175v-53.33h146.84v55.387h.775q-3.6.981-7.29,1.866A276.271,276.271,0,0,1,750.285,560.766Z" transform="translate(-674.512 -496.687)"/><path class="af" d="M751.443,559.416a272.3,272.3,0,0,1-63.129-7.215q-7.276-1.743-14.177-3.866h1.038V496.192h146.84v53.18h3.262q-1.748.507-3.521.99-3.544.967-7.184,1.839A272.294,272.294,0,0,1,751.443,559.416Z" transform="translate(-675.67 -496.687)"/><path class="ag" d="M749.167,558.066a268.267,268.267,0,0,1-62.2-7.109Q679.8,549.24,673,547.147q-1.7-.522-3.371-1.067H672.9V496.192h146.84v51.977h2.176q-1.722.5-3.469.976-3.493.953-7.079,1.812A268.265,268.265,0,0,1,749.167,558.066Z" transform="translate(-673.394 -496.687)"/><path class="ah" d="M750.376,556.715a264.266,264.266,0,0,1-61.272-7q-7.062-1.691-13.76-3.753-1.673-.514-3.321-1.051h2.086V496.192h146.84v50.775h1.091q-1.7.492-3.418.961-3.441.939-6.973,1.785A264.264,264.264,0,0,1,750.376,556.715Z" transform="translate(-674.603 -496.687)"/><path class="ai" d="M751.585,555.365a260.26,260.26,0,0,1-60.344-6.9q-6.955-1.665-13.552-3.7-1.647-.507-3.271-1.035h.9V496.192h146.84v48.581h3.323q-6.59,2.027-13.552,3.7A260.259,260.259,0,0,1,751.585,555.365Z" transform="translate(-675.813 -496.687)"/><path class="aj" d="M749.564,554.015a256.264,256.264,0,0,1-59.416-6.791q-6.848-1.64-13.343-3.639-3.244-1-6.392-2.081H673.3V496.192h146.84v47.394h2.187q-6.489,2-13.343,3.639A256.259,256.259,0,0,1,749.564,554.015Z" transform="translate(-673.791 -496.687)"/><path class="ak" d="M750.823,552.665a252.258,252.258,0,0,1-58.487-6.685q-6.741-1.615-13.135-3.582-3.194-.982-6.292-2.048h1.646V496.192h146.84V542.4h1.05q-6.387,1.964-13.135,3.582A252.258,252.258,0,0,1,750.823,552.665Z" transform="translate(-675.051 -496.687)"/><path class="al" d="M752.083,551.315a248.26,248.26,0,0,1-57.559-6.579q-6.634-1.588-12.926-3.525-3.143-.966-6.192-2.016h.409v-43h146.84v44.032h3.033q-1.548.5-3.12.987-6.286,1.934-12.926,3.525A248.256,248.256,0,0,1,752.083,551.315Z" transform="translate(-676.311 -496.687)"/><path class="am" d="M750.312,549.964a244.263,244.263,0,0,1-56.631-6.472q-6.527-1.563-12.717-3.468-3.093-.951-6.093-1.983-1.5-.516-2.976-1.051h2.148v-40.8h146.84v42.86h1.846q-1.523.5-3.069.971-6.185,1.9-12.718,3.468A244.258,244.258,0,0,1,750.312,549.964Z" transform="translate(-674.539 -496.687)"/><path class="an" d="M751.621,548.614a240.262,240.262,0,0,1-55.7-6.366q-6.42-1.537-12.509-3.412-3.041-.935-5.993-1.951-1.476-.507-2.927-1.034h.863V496.192h146.84v41.689h.658q-1.5.488-3.019.956-6.083,1.871-12.509,3.412A240.254,240.254,0,0,1,751.621,548.614Z" transform="translate(-675.848 -496.687)"/><path class="ao" d="M750.047,547.264A236.227,236.227,0,0,1,695.273,541a192.534,192.534,0,0,1-23.9-7.344h2.409V496.192h146.84v39.539h2.4q-2.9,1-5.893,1.919-5.982,1.839-12.3,3.354A236.223,236.223,0,0,1,750.047,547.264Z" transform="translate(-674.274 -496.687)"/><path class="ap" d="M751.405,545.914a232.253,232.253,0,0,1-53.846-6.154,189.281,189.281,0,0,1-23.5-7.22h1.075V496.192h146.84v38.385h1.159q-2.852.981-5.793,1.885-5.881,1.809-12.092,3.3A232.248,232.248,0,0,1,751.405,545.914Z" transform="translate(-675.632 -496.687)"/><path class="aq" d="M750.024,544.564a228.225,228.225,0,0,1-52.917-6.048,185.911,185.911,0,0,1-23.092-7.1q-1.356-.519-2.689-1.055h2.43V496.192H820.6v36.247h2.7q-1.379.5-2.781.983-2.8.964-5.693,1.853-5.779,1.777-11.884,3.241A228.221,228.221,0,0,1,750.024,544.564Z" transform="translate(-674.252 -496.687)"/><path class="ar" d="M751.431,543.214a224.223,224.223,0,0,1-51.989-5.942,182.641,182.641,0,0,1-22.687-6.971q-1.332-.509-2.642-1.036h1.05V496.192H822V531.3h1.417q-1.355.492-2.732.966-2.754.947-5.593,1.82-5.677,1.746-11.675,3.184A224.216,224.216,0,0,1,751.431,543.214Z" transform="translate(-675.658 -496.687)"/><path class="as" d="M750.241,541.863a220.243,220.243,0,0,1-51.06-5.836A179.406,179.406,0,0,1,676.9,529.18q-2.616-1-5.143-2.07h2.217V496.192h146.84V529.18h2.771a179.4,179.4,0,0,1-22.282,6.847A220.246,220.246,0,0,1,750.241,541.863Z" transform="translate(-674.469 -496.687)"/><path class="at" d="M751.695,540.513a216.214,216.214,0,0,1-50.132-5.73,176.141,176.141,0,0,1-21.878-6.722q-2.57-.982-5.049-2.033h.791V496.192h146.84v31.869H823.7a176.14,176.14,0,0,1-21.877,6.722A216.218,216.218,0,0,1,751.695,540.513Z" transform="translate(-675.922 -496.687)"/><path class="au" d="M750.693,539.163a212.213,212.213,0,0,1-49.2-5.624,172.867,172.867,0,0,1-21.472-6.6q-2.522-.965-4.956-1.995-1.217-.516-2.411-1.046h1.774V496.192h146.84v30.749h.1a172.881,172.881,0,0,1-21.472,6.6A212.215,212.215,0,0,1,750.693,539.163Z" transform="translate(-674.92 -496.687)"/><path class="av" d="M749.83,537.813a208.212,208.212,0,0,1-48.275-5.518,169.528,169.528,0,0,1-21.067-6.473q-4.949-1.893-9.548-4.042h2.622V496.192H820.4v28.667h1.223q-1.216.49-2.453.963a169.525,169.525,0,0,1-21.067,6.473A208.212,208.212,0,0,1,749.83,537.813Z" transform="translate(-674.057 -496.687)"/><path class="aw" d="M751.375,536.463a204.208,204.208,0,0,1-47.347-5.412,166.366,166.366,0,0,1-20.662-6.349q-4.854-1.856-9.364-3.964h1.1V496.192h146.84v26.591h2.205q-2.341.991-4.769,1.92a166.363,166.363,0,0,1-20.662,6.349A204.213,204.213,0,0,1,751.375,536.463Z" transform="translate(-675.602 -496.687)"/><path class="ax" d="M750.693,535.112a200.207,200.207,0,0,1-46.418-5.305,163.077,163.077,0,0,1-20.257-6.224q-4.759-1.82-9.18-3.886-1.1-.516-2.186-1.047h1.773V496.192h146.84V521.7h.779q-2.3.972-4.675,1.882a163.1,163.1,0,0,1-20.257,6.224A200.213,200.213,0,0,1,750.693,535.112Z" transform="translate(-674.921 -496.687)"/><path class="ay" d="M750.146,533.762a196.2,196.2,0,0,1-45.49-5.2,159.805,159.805,0,0,1-19.851-6.1q-4.664-1.783-9-3.808-2.165-1.011-4.24-2.08h2.311V496.192h146.84v23.459h1.58q-1.1.49-2.229.967-2.25.953-4.582,1.845a159.836,159.836,0,0,1-19.851,6.1A196.21,196.21,0,0,1,750.146,533.762Z" transform="translate(-674.373 -496.687)"/><path class="az" d="M751.779,532.412a192.2,192.2,0,0,1-44.562-5.093,156.591,156.591,0,0,1-19.447-5.975q-4.568-1.747-8.813-3.731-2.121-.991-4.154-2.037h.707V496.192h146.84v21.42h2.25q-4.241,1.982-8.813,3.731a156.579,156.579,0,0,1-19.446,5.975A192.207,192.207,0,0,1,751.779,532.412Z" transform="translate(-676.007 -496.687)"/><path class="ba" d="M749.448,531.061c-30.955,0-58.979-7.1-79.265-18.587h3V496.192h146.84V516.57h.732q-4.152,1.94-8.63,3.653a153.386,153.386,0,0,1-19.041,5.851A188.206,188.206,0,0,1,749.448,531.061Z" transform="translate(-673.675 -496.687)"/><path class="bb" d="M751.165,529.712c-30.3,0-57.724-6.952-77.578-18.191h1.31V496.192h146.84v17.384h3.2q-1.948,1-3.981,1.952-4.064,1.9-8.446,3.576a150.034,150.034,0,0,1-18.636,5.726A184.174,184.174,0,0,1,751.165,529.712Z" transform="translate(-675.393 -496.687)"/><path class="bc" d="M749.263,528.361c-29.638,0-56.47-6.8-75.892-17.8q-1.821-1.031-3.554-2.11H673V496.192h146.84v16.385h1.592q-1.906.981-3.894,1.91-3.975,1.857-8.262,3.5a146.678,146.678,0,0,1-18.231,5.6A180.2,180.2,0,0,1,749.263,528.361Z" transform="translate(-673.491 -496.687)"/><path class="bd" d="M751.062,527.011c-28.979,0-55.214-6.65-74.205-17.4q-1.78-1.008-3.475-2.063h1.412V496.192h146.84v14.415h1.832q-.912.491-1.843.971-1.864.959-3.807,1.868-3.888,1.816-8.079,3.42a143.416,143.416,0,0,1-17.826,5.477A176.164,176.164,0,0,1,751.062,527.011Z" transform="translate(-675.289 -496.687)"/><path class="be" d="M749.577,525.661c-28.32,0-53.959-6.5-72.518-17q-3.481-1.97-6.619-4.123h2.87v-8.341h146.84v12.464H822.1C803.536,519.162,777.9,525.661,749.577,525.661Z" transform="translate(-673.804 -496.687)"/><path class="bf" d="M751.451,524.311c-27.662,0-52.7-6.347-70.832-16.61q-3.4-1.925-6.465-4.027h1.029v-7.482h146.84V507.7h.26C804.156,517.964,779.113,524.311,751.451,524.311Z" transform="translate(-675.679 -496.687)"/><path class="bg" d="M750.369,522.96c-27,0-51.45-6.2-69.146-16.214q-3.318-1.878-6.311-3.931-1.494-1.025-2.9-2.091H674.1v-4.532h146.84v8.632h1.812q-1.578.983-3.238,1.923C801.818,516.764,777.372,522.96,750.369,522.96Z" transform="translate(-674.596 -496.687)"/><path class="bh" d="M749.607,521.61c-26.344,0-50.2-6.045-67.459-15.819A77.765,77.765,0,0,1,670.5,497.8h2.841v-1.607h146.84v5.764h3.045q-2.916,2-6.157,3.835C799.8,515.565,775.951,521.61,749.607,521.61Z" transform="translate(-673.834 -496.687)"/><path class="bi" d="M751.621,520.26c-25.686,0-48.94-5.894-65.773-15.423a75.859,75.859,0,0,1-11.358-7.793h.863v-.852h146.84V501.1h1.2q-2.843,1.951-6,3.74C800.561,514.366,777.307,520.26,751.621,520.26Z" transform="translate(-675.848 -496.687)"/><path class="bj" d="M751.234,516.888c-25.027,0-47.685-5.742-64.086-15.027a73.9,73.9,0,0,1-11.067-7.594q-1.222-1.023-2.357-2.082l1.242,1.985h146.84v2.108h2.054q-1.3.988-2.69,1.938-2.77,1.9-5.849,3.644C798.919,511.145,776.262,516.888,751.234,516.888Z" transform="translate(-675.462 -494.665)"/><path class="bk" d="M755.65,516.89c-24.369,0-46.43-5.592-62.4-14.632a71.98,71.98,0,0,1-10.776-7.394v.658H826.222l2.6-.658a71.983,71.983,0,0,1-10.776,7.394C802.08,511.3,780.019,516.89,755.65,516.89Z" transform="translate(-679.878 -496.017)"/><path class="bl" d="M757.665,514.77c-23.71,0-45.175-5.44-60.714-14.237a70,70,0,0,1-10.484-7.193v1.413H828.236l.626-1.413a70.01,70.01,0,0,1-10.484,7.193C802.84,509.33,781.375,514.77,757.665,514.77Z" transform="translate(-681.892 -495.248)"/><path class="bm" d="M759.679,512.651c-23.052,0-43.921-5.29-59.027-13.841a68.089,68.089,0,0,1-10.193-6.994v2.168H828.9v-2.168a68.081,68.081,0,0,1-10.193,6.994C803.6,507.362,782.73,512.651,759.679,512.651Z" transform="translate(-683.907 -494.479)"/><path class="bn" d="M761.694,510.532c-22.393,0-42.666-5.138-57.34-13.446a66.125,66.125,0,0,1-9.9-6.794v2.923H828.936v-2.923a66.16,66.16,0,0,1-9.9,6.794C804.359,505.394,784.087,510.532,761.694,510.532Z" transform="translate(-685.922 -493.71)"/><path class="bo" d="M768.324,511.906c-21.734,0-41.411-4.987-55.654-13.05q-2.67-1.511-5.08-3.164v.248H829.057v-.248q-2.406,1.65-5.08,3.164C809.734,506.919,790.058,511.906,768.324,511.906Z" transform="translate(-692.551 -496.435)"/><path class="bp" d="M770.2,509.681c-21.076,0-40.156-4.836-53.967-12.655q-2.59-1.466-4.926-3.068v1.107H829.091v-1.107q-2.333,1.6-4.926,3.068C810.354,504.846,791.274,509.681,770.2,509.681Z" transform="translate(-694.426 -495.56)"/><path class="bq" d="M772.073,507.457c-20.417,0-38.9-4.685-52.281-12.259q-2.509-1.42-4.772-2.972v1.965H829.126v-1.965q-2.26,1.55-4.772,2.972C810.974,502.772,792.49,507.457,772.073,507.457Z" transform="translate(-696.301 -494.686)"/><path class="br" d="M773.948,505.232c-19.758,0-37.646-4.534-50.594-11.864q-2.428-1.375-4.618-2.877v2.824H829.161v-2.824q-2.188,1.5-4.618,2.877C811.594,500.7,793.707,505.232,773.948,505.232Z" transform="translate(-698.176 -493.811)"/><path class="bs" d="M780.37,505.839c-19.1,0-36.391-4.383-48.908-11.469v.9h97.816v-.9C816.761,501.456,799.469,505.839,780.37,505.839Z" transform="translate(-704.597 -495.768)"/><path class="bt" d="M782.088,503.516c-18.441,0-35.136-4.232-47.222-11.073V494.3h94.443v-1.857C817.224,499.285,800.529,503.516,782.088,503.516Z" transform="translate(-706.315 -494.796)"/><path class="bu" d="M783.806,501.193c-17.783,0-33.882-4.08-45.535-10.677v2.812h91.07v-2.812C817.687,497.113,801.588,501.193,783.806,501.193Z" transform="translate(-708.033 -493.823)"/><path class="bv" d="M790.01,501.178a104.1,104.1,0,0,1-24.137-2.759,84.833,84.833,0,0,1-10.534-3.236q-2.474-.947-4.773-2.021v1.5h78.89v-1.5q-2.3,1.073-4.774,2.021a84.8,84.8,0,0,1-10.533,3.236A104.107,104.107,0,0,1,790.01,501.178Z" transform="translate(-714.237 -495.158)"/><path class="bw" d="M796.231,500.747a100.1,100.1,0,0,1-23.209-2.653,81.566,81.566,0,0,1-10.129-3.112v.6h66.675v-.6a81.539,81.539,0,0,1-10.128,3.112A100.106,100.106,0,0,1,796.231,500.747Z" transform="translate(-720.458 -496.077)"/><path class="bx" d="M797.589,498.256a96.1,96.1,0,0,1-22.281-2.546,78.282,78.282,0,0,1-9.723-2.988v1.719h64.008v-1.719a78.274,78.274,0,0,1-9.723,2.988A96.1,96.1,0,0,1,797.589,498.256Z" transform="translate(-721.817 -494.936)"/><path class="by" d="M798.948,495.766a92.071,92.071,0,0,1-21.353-2.441,75.027,75.027,0,0,1-9.318-2.863V493.3h61.341v-2.839a75.019,75.019,0,0,1-9.318,2.863A92.074,92.074,0,0,1,798.948,495.766Z" transform="translate(-723.175 -493.796)"/><path class="bz" d="M809.385,496.064a88.1,88.1,0,0,1-20.424-2.334v1.22h40.848v-1.22A88.1,88.1,0,0,1,809.385,496.064Z" transform="translate(-733.613 -495.445)"/><path class="ca" d="M779.17,496.192h0Z" transform="translate(-703.397 -496.687)"/><path class="cb" d="M781.6,496.192h0Z" transform="translate(-705.827 -496.687)"/><path class="cc" d="M784.029,496.192h0Z" transform="translate(-708.256 -496.687)"/><path class="cd" d="M786.459,496.192h0Z" transform="translate(-710.686 -496.687)"/><path class="ce" d="M788.888,496.192h0Z" transform="translate(-713.115 -496.687)"/><path class="cf" d="M791.318,496.192h0Z" transform="translate(-715.545 -496.687)"/><path class="cg" d="M793.747,496.192h0Z" transform="translate(-717.974 -496.687)"/><path class="ch" d="M796.177,496.192h0Z" transform="translate(-720.404 -496.687)"/><path class="ci" d="M798.606,496.192h0Z" transform="translate(-722.834 -496.687)"/><path class="cj" d="M801.036,496.192h0Z" transform="translate(-725.263 -496.687)"/><path class="ck" d="M803.465,496.192h0Z" transform="translate(-727.693 -496.687)"/><path class="cl" d="M805.895,496.192h0Z" transform="translate(-730.122 -496.687)"/><path class="cm" d="M808.324,496.192h0Z" transform="translate(-732.552 -496.687)"/><path class="cn" d="M810.754,496.192h0Z" transform="translate(-734.981 -496.687)"/><path class="co" d="M813.183,496.192h0Z" transform="translate(-737.411 -496.687)"/><path class="cp" d="M815.613,496.192h0Z" transform="translate(-739.84 -496.687)"/><path class="cq" d="M818.042,496.192h0Z" transform="translate(-742.27 -496.687)"/><path class="cr" d="M820.472,496.192h0Z" transform="translate(-744.699 -496.687)"/><path class="cs" d="M822.9,496.192h0Z" transform="translate(-747.129 -496.687)"/><path class="ct" d="M825.331,496.192h0Z" transform="translate(-749.558 -496.687)"/><path class="cu" d="M827.76,496.192h0Z" transform="translate(-751.988 -496.687)"/></g></g><path class="cv" d="M823.369,577.4a8.181,8.181,0,0,0-.652-3.744q-.273-.678-.546-1.356-1.13-2.8-2.258-5.608l-3.326-8.261-3.812-9.467-3.714-9.225-3.033-7.534-1.77-4.395-.229-.569-1.335-3.315,0-.008,0,.008h0a6.055,6.055,0,0,1,.017,4.464,10.236,10.236,0,0,1-2.594,3.591,29.132,29.132,0,0,1-8.282,5.084,93.808,93.808,0,0,1-20.713,5.941,200.371,200.371,0,0,1-22.7,2.841c-7.723.555-15.483.741-23.229.59-7.716-.15-15.428-.63-23.079-1.511a162.263,162.263,0,0,1-22.295-3.993,84.426,84.426,0,0,1-10.442-3.38,35.669,35.669,0,0,1-8.864-4.878c-2.259-1.8-4.227-4.242-4.081-7.032a5.63,5.63,0,0,1,.571-1.8l.654-1.612a8.061,8.061,0,0,0-.773,1.438l-4.145,10.189-16.164,39.727,0,0,0,0a7.685,7.685,0,0,0-.406,4.566,9.924,9.924,0,0,0,1.983,3.929,25.272,25.272,0,0,0,7.436,5.909c6.2,3.529,13.26,5.812,20.314,7.659a196.305,196.305,0,0,0,22.362,4.311c7.609,1.069,15.278,1.753,22.964,2.222,7.729.472,15.483.62,23.229.524q11.578-.143,23.119-1.112c7.624-.65,15.225-1.588,22.734-2.913a148.762,148.762,0,0,0,21.614-5.292,74.892,74.892,0,0,0,10.009-4.111,31.153,31.153,0,0,0,8.1-5.567,10.542,10.542,0,0,0,3.337-6.308l0,.06,0-.06C823.467,576.212,823.357,577.544,823.369,577.4Z" transform="translate(-635.588 -505.654)"/><g transform="translate(20.836)"><path class="cw" d="M750.09,495.042c26.983,0,51.811,4.209,63.252,10.722,3.262,1.857,4.116,3.174,4.3,3.542-.355.762-2.4,3-8.4,5.507-6.654,2.776-16.059,5.037-27.2,6.538a232.97,232.97,0,0,1-30.948,1.978c-26.984,0-51.813-4.209-63.255-10.722-3.262-1.857-4.116-3.174-4.3-3.541.354-.762,2.4-3,8.4-5.506,6.654-2.777,16.059-5.038,27.2-6.539a232.959,232.959,0,0,1,30.949-1.978h0m0-6.273A240.665,240.665,0,0,0,718.3,490.8c-36.37,4.9-51.4,17.1-33.563,27.256,12.81,7.293,39.089,11.543,66.358,11.543a240.676,240.676,0,0,0,31.786-2.034c36.37-4.9,51.4-17.1,33.563-27.256-12.811-7.293-39.089-11.544-66.359-11.543Z" transform="translate(-677.232 -488.768)"/></g></g><path class="cx" d="M821.887,553.131a97.1,97.1,0,0,1-19.619,5.469,200.357,200.357,0,0,1-22.7,2.841c-7.723.555-15.483.741-23.23.59-7.715-.15-15.427-.63-23.079-1.511a170.506,170.506,0,0,1-18.985-3.184l-16.56,54.072a198.517,198.517,0,0,0,21.7,4.144c7.609,1.069,15.278,1.753,22.964,2.222,7.729.472,15.483.62,23.229.524q11.578-.143,23.119-1.112c7.624-.65,15.225-1.588,22.734-2.913a148.77,148.77,0,0,0,21.614-5.292q1.49-.5,2.958-1.051C832.066,592.875,825.389,565.687,821.887,553.131Z" transform="translate(-31.562 -32.479)"/><path class="cy" d="M645.756,596.076a33.1,33.1,0,0,0,4.762,3.218,65.129,65.129,0,0,0,10.577,4.724l18.736-53.187c-1.872-.591-3.72-1.241-5.525-1.973a37.991,37.991,0,0,1-8-4.224Z" transform="translate(-5.341 -28.192)"/><path class="cz" d="M973.372,599.272a31.148,31.148,0,0,0,8.094-5.567,14.078,14.078,0,0,0,2.034-2.553l-18.06-45.7a12.858,12.858,0,0,1-1.588,1.787,24.448,24.448,0,0,1-5.763,3.887c.086.152-.015.3-.473.443l14.279,48.428C972.39,599.759,972.884,599.52,973.372,599.272Z" transform="translate(-162.711 -28.601)"/><g transform="translate(724.129 554.314)"><g transform="translate(0 0)"><path class="da" d="M837,633.7c.027,3.6-2.009,5.188-5.269,4.557-1.624-.315-3.227-.743-4.852-1.054a6.052,6.052,0,0,0-3.506.405,9.23,9.23,0,0,1-5.471.37c-1.826-.366-2.622-1.64-2.991-3.312a6.574,6.574,0,0,1,1.693-6.069,9.731,9.731,0,0,1,1.646-1.533,7.537,7.537,0,0,0,2.321-2.837,5.48,5.48,0,0,1,8.491-1.852,8.633,8.633,0,0,1,1.768,2.209,8.206,8.206,0,0,0,2.366,2.542A8.3,8.3,0,0,1,837,633.7Z" transform="translate(-814.744 -621.082)"/></g></g><path class="da" d="M826,598.417c.562,3.343-.785,6.357-3.008,6.73s-4.48-2.035-5.042-5.378.785-6.357,3.008-6.73S825.441,595.074,826,598.417Z" transform="translate(-92.171 -52.598)"/><path class="da" d="M839.077,598.417c-.562,3.343.785,6.357,3.008,6.73s4.48-2.035,5.042-5.378-.785-6.357-3.008-6.73S839.638,595.074,839.077,598.417Z" transform="translate(-102.83 -52.598)"/><path class="da" d="M855.3,613.565c-1.155,2.823-.57,5.733,1.307,6.5s4.335-.9,5.49-3.721.569-5.733-1.308-6.5S856.456,610.742,855.3,613.565Z" transform="translate(-110.782 -61.003)"/><ellipse class="da" cx="3.672" cy="5.522" rx="3.672" ry="5.522" transform="translate(716.905 550.847) rotate(-24.482)"/></g></svg>